<svg xmlns="http://www.w3.org/2000/svg" viewBox="0 0 871.87495 828.92937"><path d="M462.708 828.917l-101.476-.165.165-19.835.166-19.834 107.656-.158 107.656-.158v39.83s-63.14.407-114.167.32zM77.5 808.77v-20h215v40h-215zm42.816-261.896c-9.434.33-21.829-8.118-21.864-18-.044-12.302 10.15-19.061 20.936-19.445 11.379-.405 19.719 10.897 19.719 19.641 0 8.746-10.168 17.504-18.791 17.804zm467.61-480.81c-.135-9.869 11.067-20.937 20.937-20.937 9.87 0 21.04 11.2 20.938 20.937-.103 9.738-11.197 19.918-20.804 19.948-9.672.031-20.939-10.277-21.071-19.948zM488.26 437.052l.177-6.72 31.094-.161 31.094-.162v13.761h-62.542zM0 247.52v-12.5h84.375v25H0zm88.268.157l.17-12.344 41.718-.16 41.719-.162v25.009H88.099zm87.5 0l.17-12.344 41.718-.16 41.719-.162v25.009h-83.776zm87.5 0l.17-12.344 41.718-.16 41.719-.162v25.009h-83.776zm87.5 0l.17-12.344 41.718-.16 41.719-.162v25.009h-83.776zm87.5 0l.17-12.344 41.718-.16 41.719-.162v25.009h-83.776zm87.5 0l.17-12.344 41.718-.16 41.719-.162v25.009h-83.776zm87.5 0l.17-12.344 41.718-.16 41.719-.162v25.009h-83.776zm87.5 0l.17-12.344 41.718-.16 41.719-.162v25.009h-83.776zm87.5 0l.17-12.344 41.718-.16 41.719-.162v25.009h-83.776zM0 218.457V206.27h84.375v24.375H0zm88.542 11.772c-.23-.23-.417-5.714-.417-12.188v-11.77h83.75v24.374h-41.458c-22.802 0-41.646-.187-41.875-.416zm87.5 0c-.23-.23-.417-5.714-.417-12.188v-11.77h83.75v24.374h-41.458c-22.802 0-41.646-.187-41.875-.416zm87.5 0c-.23-.23-.417-5.714-.417-12.188v-11.77h83.75v24.374h-41.458c-22.802 0-41.646-.187-41.875-.416zm87.5 0c-.23-.23-.417-5.714-.417-12.188v-11.77h83.75v24.374h-41.458c-22.802 0-41.646-.187-41.875-.416zm87.5 0c-.23-.23-.417-5.714-.417-12.188v-11.77h83.75v24.374h-41.458c-22.802 0-41.646-.187-41.875-.416zm87.5 0c-.23-.23-.417-5.714-.417-12.188v-11.77h83.75v24.374h-41.458c-22.802 0-41.646-.187-41.875-.416zm87.5 0c-.23-.23-.417-5.714-.417-12.188v-11.77h83.75v24.374h-41.458c-22.802 0-41.646-.187-41.875-.416zm87.5 0c-.23-.23-.417-5.714-.417-12.188v-11.77h83.75v24.374h-41.458c-22.802 0-41.646-.187-41.875-.416zm87.5 0c-.23-.23-.417-5.714-.417-12.188v-11.77h83.75v24.374h-41.458c-22.802 0-41.646-.187-41.875-.416zM0 188.77v-12.5h84.375v25H0zm88.125 0v-12.5h83.75v25h-83.75zm87.5 0v-12.5h83.75v25h-83.75zm87.5 0v-12.5h83.75v25h-83.75zm87.5 0v-12.5h83.75v25h-83.75zm87.5 0v-12.5h83.75v25h-83.75zm87.5 0v-12.5h83.75v25h-83.75zm87.5 0v-12.5h83.75v25h-83.75zm87.5 0v-12.5h83.75v25h-83.75zm87.5 0v-12.5h83.75v25h-83.75zM0 160.02v-12.5h84.375v25H0zm88.268.157l.17-12.344 41.718-.16 41.719-.162v25.009H88.099zm87.5 0l.17-12.344 41.718-.16 41.719-.162v25.009h-83.776zm87.5 0l.17-12.344 41.718-.16 41.719-.162v25.009h-83.776zm87.5 0l.17-12.344 41.718-.16 41.719-.162v25.009h-83.776zm87.5 0l.17-12.344 41.718-.16 41.719-.162v25.009h-83.776zm87.5 0l.17-12.344 41.718-.16 41.719-.162v25.009h-83.776zm87.5 0l.17-12.344 41.718-.16 41.719-.162v25.009h-83.776zm87.5 0l.17-12.344 41.718-.16 41.719-.162v25.009h-83.776zm87.5 0l.17-12.344 41.718-.16 41.719-.162v25.009h-83.776zM0 130.957V118.77h84.375v24.375H0zm88.542 11.772c-.23-.23-.417-5.714-.417-12.188v-11.77h83.75v24.374h-41.458c-22.802 0-41.646-.187-41.875-.416zm87.5 0c-.23-.23-.417-5.714-.417-12.188v-11.77h83.75v24.374h-41.458c-22.802 0-41.646-.187-41.875-.416zm87.5 0c-.23-.23-.417-5.714-.417-12.188v-11.77h83.75v24.374h-41.458c-22.802 0-41.646-.187-41.875-.416zm87.5 0c-.23-.23-.417-5.714-.417-12.188v-11.77h83.75v24.374h-41.458c-22.802 0-41.646-.187-41.875-.416zm87.5 0c-.23-.23-.417-5.714-.417-12.188v-11.77h83.75v24.374h-41.458c-22.802 0-41.646-.187-41.875-.416zm87.5 0c-.23-.23-.417-5.714-.417-12.188v-11.77h83.75v24.374h-41.458c-22.802 0-41.646-.187-41.875-.416zm87.5 0c-.23-.23-.417-5.714-.417-12.188v-11.77h83.75v24.374h-41.458c-22.802 0-41.646-.187-41.875-.416zm87.5 0c-.23-.23-.417-5.714-.417-12.188v-11.77h83.75v24.374h-41.458c-22.802 0-41.646-.187-41.875-.416zm87.5 0c-.23-.23-.417-5.714-.417-12.188v-11.77h83.75v24.374h-41.458c-22.802 0-41.646-.187-41.875-.416zM0 101.27v-12.5h84.375v25H0zm88.125 0v-12.5h83.75v25h-83.75zm87.5 0v-12.5h83.75v25h-83.75zm87.5 0v-12.5h83.75v25h-83.75zm87.5 0v-12.5h83.75v25h-83.75zm87.5 0v-12.5h83.75v25h-83.75zm175 0v-12.5h83.75v25h-83.75zm87.5 0v-12.5h83.75v25h-83.75zm87.5 0v-12.5h83.75v25h-83.75zM426.281 26.125l-107.988-.309v-11.42h107.633"/><path d="M508.878.505L572.518 0c.2 36.305-29.61 34.084-29.61 34.084s-33.7 1.929-34.03-33.579z" fill="#a00" fill-rule="evenodd"/></svg>