<?xml version="1.0" encoding="UTF-8" standalone="no"?>
<!-- Created with Inkscape (http://www.inkscape.org/) -->

<svg
   xmlns:dc="http://purl.org/dc/elements/1.1/"
   xmlns:cc="http://creativecommons.org/ns#"
   xmlns:rdf="http://www.w3.org/1999/02/22-rdf-syntax-ns#"
   xmlns:svg="http://www.w3.org/2000/svg"
   xmlns="http://www.w3.org/2000/svg"
   xmlns:sodipodi="http://sodipodi.sourceforge.net/DTD/sodipodi-0.dtd"
   xmlns:inkscape="http://www.inkscape.org/namespaces/inkscape"
   viewBox="0 0 1200 300"
   id="svg5595"
   version="1.1"
   inkscape:version="0.91 r13725"
   sodipodi:docname="breidablik.svg"
   width="1200"
   height="300">
  <defs
     id="defs5597" />
  <sodipodi:namedview
     id="base"
     pagecolor="#ffffff"
     bordercolor="#666666"
     borderopacity="1.0"
     inkscape:pageopacity="0.0"
     inkscape:pageshadow="2"
     inkscape:zoom="0.98994949"
     inkscape:cx="-38.063561"
     inkscape:cy="19.460729"
     inkscape:document-units="px"
     inkscape:current-layer="layer1"
     showgrid="false"
     inkscape:window-width="1680"
     inkscape:window-height="1001"
     inkscape:window-x="0"
     inkscape:window-y="1"
     inkscape:window-maximized="1"
     fit-margin-top="0"
     fit-margin-left="0"
     fit-margin-right="0"
     fit-margin-bottom="0" />
  <metadata
     id="metadata5600">
    <rdf:RDF>
      <cc:Work
         rdf:about="">
        <dc:format>image/svg+xml</dc:format>
        <dc:type
           rdf:resource="http://purl.org/dc/dcmitype/StillImage" />
        <dc:title></dc:title>
      </cc:Work>
    </rdf:RDF>
  </metadata>
  <g
     inkscape:label="Layer 1"
     inkscape:groupmode="layer"
     id="layer1"
     transform="translate(-15.22129,-134.97537)">
    <g
       transform="matrix(1.9787035,0,0,-1.9787035,-76.176081,635.19135)"
       id="g5354">
      <path
         id="path16"
         style="fill:#128c70;fill-opacity:1;fill-rule:nonzero;stroke:none"
         d="m 165.329,102.159 c -5.771,0 -118.777479,-0.27659 -118.777479,-0.27659 l 0.770764,149.8006 118.705725,1.08296 c 0,0 -0.64474,-108.34205 -0.69901,-150.42644"
         inkscape:connector-curvature="0"
         sodipodi:nodetypes="ccccc" />
      <path
         id="path18"
         style="fill:#128c70;fill-opacity:1;fill-rule:nonzero;stroke:none"
         d="m 164.975,102.184 c 6.035,-0.009 487.70692,-0.63757 487.70692,-0.63757 l 0.36998,150.49756 c 0,0 -487.32708,1.33203 -487.33015,0.71398 l -0.74697,-150.57393"
         inkscape:connector-curvature="0"
         sodipodi:nodetypes="cccsc" />
      <path
         id="path20"
         style="fill:#ffffff;fill-opacity:1;fill-rule:nonzero;stroke:none"
         d="m 160.373,120.198 3.54,0 0,-18.113 -3.54,0 z"
         inkscape:connector-curvature="0"
         sodipodi:nodetypes="ccccc" />
      <path
         id="path22"
         style="fill:#ffffff;fill-opacity:1;fill-rule:nonzero;stroke:none"
         d="m 166.803,120.198 3.54,0 0,-18.113 -3.54,0 z"
         inkscape:connector-curvature="0"
         sodipodi:nodetypes="ccccc" />
      <path
         id="path24"
         style="fill:#ffffff;fill-opacity:1;fill-rule:nonzero;stroke:none"
         d="m 153.473,185.44 23.21,0 0,-3.36 -6.29,0 0,-34.58 -3.59,0 0,34.58 -2.89,0 0,-34.58 -3.54,0 0,34.58 -6.9,0 0,3.36"
         inkscape:connector-curvature="0"
         sodipodi:nodetypes="ccccccccccccc" />
      <path
         id="path26"
         style="fill:#ffffff;fill-opacity:1;fill-rule:nonzero;stroke:none"
         d="m 145.388,192.06 c -0.485,0.79 -0.675,1.49 -0.675,1.49 l 41.199,0 c -0.139,-0.28 -0.229,-0.7 -0.708,-1.581 -1.029,-1.927 -4.173,-4.668 -19.891,-4.668 -15.866,0 -18.945,2.832 -19.925,4.759"
         inkscape:connector-curvature="0"
         sodipodi:nodetypes="ccccsc" />
      <path
         id="path28"
         style="fill:#ffffff;fill-opacity:1;fill-rule:nonzero;stroke:none"
         d="m 165.082,219.707 c 5.871,4.01 1.778,10.292 1.803,10.342 -3.631,-7.888 -14.169,-10.243 -17.454,-12.647 -5.294,-3.87 -8.185,-9.147 -3.829,-15.808 1.235,-1.894 7.13,-6.101 14.515,-6.307 1.597,-0.049 11.923,-0.124 11.642,0.568 -0.518,0.066 -3.029,1.754 -0.461,2.495 8.118,2.321 14.203,5.558 15.471,9.386 3.739,11.362 -5.516,19.135 -5.228,17.397 0.535,-3.161 1.301,-6.776 -3.343,-10.547 -1.54,-0.988 -2.775,-1.556 -5.138,-2.248 -3.21,-0.938 -5.886,-3.795 -5.112,-3.219 7.55,5.706 11.477,5.813 11.716,13.643 0.321,10.712 -11.264,14.03 -11.042,13.519 3.755,-8.801 1.112,-13.635 1.112,-13.635 0,0 -1.284,-3.12 -10.325,-6.841 -9.278,-3.442 -9.179,-12.564 -9.089,-11.89 1.4,10.342 10.267,12.73 14.762,15.792"
         inkscape:connector-curvature="0"
         sodipodi:nodetypes="cccccccccccccccccc" />
      <path
         id="path30"
         style="fill:#ee3424;fill-opacity:1;fill-rule:nonzero;stroke:none"
         d="m 163.403,219.617 c 5.936,3.112 3.326,8.661 3.351,8.711 -4.167,-7.311 -13.586,-9.394 -16.723,-11.593 -5.038,-3.515 -7.598,-8.744 -3.457,-14.795 1.177,-1.721 6.793,-5.549 13.823,-5.739 1.523,-0.041 9.37,0 9.37,0 -1.193,1.046 -1.268,2.437 1.186,3.047 7.698,1.901 13.882,6.273 14.638,8.365 3.467,9.525 -3.499,17.356 -3.07,15.816 0.699,-2.503 -0.066,-7.732 -4.718,-10.111 -1.449,-0.741 -3.334,-1.333 -5.524,-1.778 -3.13,-0.643 -5.509,-2.256 -4.776,-1.729 7.188,5.178 10.012,5.121 11.058,12.061 1.391,9.247 -9.008,13.965 -8.794,13.504 4.043,-8.745 0.429,-13.692 0.429,-13.692 0,0 -1.047,-2.569 -10.654,-6.653 -2.405,-1.029 -6.876,-4.116 -8.283,-8.481 -0.47,-1.448 -0.807,-2.009 -0.832,-1.375 -0.206,5.69 4.175,8.712 4.175,8.712 0,0 3.927,3.169 8.801,5.73"
         inkscape:connector-curvature="0"
         sodipodi:nodetypes="cccccccccscccccccccc" />
      <path
         id="path32"
         style="fill:#ffffff;fill-opacity:1;fill-rule:nonzero;stroke:none"
         d="m 137.846,122.158 0,23.234 9.51,0 0,-3.572 -5.862,0 0,-5.723 5.4,0 0,-3.573 -5.4,0 0,-6.793 6.06,0 0,-3.573 -9.708,0"
         inkscape:connector-curvature="0"
         sodipodi:nodetypes="ccccccccccccc" />
      <path
         id="path34"
         style="fill:#ffffff;fill-opacity:1;fill-rule:nonzero;stroke:none"
         d="m 148.468,145.392 3.648,0 0,-23.235 -3.648,0 z"
         inkscape:connector-curvature="0"
         sodipodi:nodetypes="ccccc" />
      <path
         id="path36"
         style="fill:#ffffff;fill-opacity:1;fill-rule:nonzero;stroke:none"
         d="m 192.178,122.158 0,23.234 3.648,0 0,-19.743 4.15,0 0,-3.491 -7.798,0"
         inkscape:connector-curvature="0"
         sodipodi:nodetypes="ccccccc" />
      <path
         id="path38"
         style="fill:#ffffff;fill-opacity:1;fill-rule:nonzero;stroke:none"
         d="m 200.997,145.392 3.648,0 0,-23.235 -3.648,0 z"
         inkscape:connector-curvature="0"
         sodipodi:nodetypes="ccccc" />
      <path
         id="path40"
         style="fill:#ffffff;fill-opacity:1;fill-rule:nonzero;stroke:none"
         d="m 214.706,145.392 4.001,0 -4.874,-10.423 4.874,-12.811 -4.1,0 -4.175,11.906 -0.049,0 0,-11.906 -3.639,0 0,23.234 3.639,0 0,-9.946 0.049,0 4.274,9.946"
         inkscape:connector-curvature="0"
         sodipodi:nodetypes="cccccccccccccc" />
      <path
         id="path42"
         style="fill:#ffffff;fill-opacity:1;fill-rule:evenodd;stroke:none"
         d="m 129.456,135.348 1.614,0 c 1.449,0 1.861,1.935 1.861,3.417 0,2.214 -0.7,3.055 -1.861,3.055 l -1.614,0 0,-6.472 m 0,-13.19 -3.647,0 0,23.234 6.735,0 c 2.486,0 4.076,-2.124 4.076,-6.084 0,-2.955 -0.865,-5.179 -3.236,-5.689 l 0,-0.066 c 0.798,-0.132 3.161,-0.387 3.161,-4.569 0,-1.482 0.075,-5.863 0.412,-6.826 l -3.573,0 c -0.478,1.416 -0.379,2.997 -0.379,4.503 0,2.775 0.19,5.121 -2.61,5.121 l -0.939,0 0,-9.624"
         inkscape:connector-curvature="0"
         sodipodi:nodetypes="cssscccccssccsccsscc" />
      <path
         id="path44"
         style="fill:#ffffff;fill-opacity:1;fill-rule:evenodd;stroke:none"
         d="m 116.76,135.899 2.438,0 c 0.799,0 1.91,0.708 1.91,2.956 0,1.713 -0.873,2.965 -2.1,2.965 l -2.248,0 0,-5.921 m 0,-10.168 2.026,0 c 0.774,0 2.511,0.034 2.511,3.285 0,2.058 -0.576,3.31 -2.412,3.31 l -2.125,0 0,-6.595 m -3.639,-3.573 0,23.234 6.464,0 c 2.774,0 5.071,-1.061 5.071,-6.018 0,-2.668 -0.988,-4.602 -2.972,-5.113 l 0,-0.066 c 2.586,-0.486 3.26,-2.7 3.26,-5.887 0,-5.886 -3.836,-6.15 -5.384,-6.15 l -6.439,0"
         inkscape:connector-curvature="0"
         sodipodi:nodetypes="cssscccsssccccssccssc" />
      <path
         id="path46"
         style="fill:#ffffff;fill-opacity:1;fill-rule:evenodd;stroke:none"
         d="m 157.927,136.097 1.647,0 0,-2.544 -1.647,0 0,-7.822 1.762,0 c 2.215,0 2.652,2.223 2.652,8.044 0,4.282 0,8.045 -2.536,8.045 l -1.878,0 0,-5.723 m -3.646,-2.544 -1.581,0 0,2.544 1.581,0 0,9.295 6.084,0 c 4.775,0 5.664,-4.248 5.664,-11.485 0,-3.573 0.412,-11.749 -5.813,-11.749 l -5.935,0 0,11.395"
         inkscape:connector-curvature="0"
         sodipodi:nodetypes="cccccssscccccccssscc" />
      <path
         id="path48"
         style="fill:#ffffff;fill-opacity:1;fill-rule:evenodd;stroke:none"
         d="m 172.229,140.913 -0.049,0 -1.663,-10.217 3.474,0 -1.762,10.217 m -7.023,-18.755 4.833,23.234 4.8,0 4.726,-23.234 -3.837,0 -0.963,5.146 -4.973,0 -0.988,-5.146 -3.598,0"
         inkscape:connector-curvature="0"
         sodipodi:nodetypes="cccccccccccccc" />
      <path
         id="path50"
         style="fill:#ffffff;fill-opacity:1;fill-rule:evenodd;stroke:none"
         d="m 183.039,135.899 2.438,0 c 0.799,0 1.91,0.708 1.91,2.956 0,1.713 -0.873,2.965 -2.1,2.965 l -2.248,0 0,-5.921 m 0,-10.168 2.026,0 c 0.774,0 2.511,0.034 2.511,3.285 0,2.058 -0.576,3.31 -2.413,3.31 l -2.124,0 0,-6.595 m -3.647,-3.573 0,23.234 6.472,0 c 2.774,0 5.063,-1.061 5.063,-6.018 0,-2.668 -0.988,-4.602 -2.964,-5.113 l 0,-0.066 c 2.577,-0.486 3.26,-2.7 3.26,-5.887 0,-5.886 -3.836,-6.15 -5.384,-6.15 l -6.447,0"
         inkscape:connector-curvature="0"
         sodipodi:nodetypes="cssscccsssccccssccssc" />
    </g>
  </g>
</svg>
