<svg id="Layer_1" xmlns="http://www.w3.org/2000/svg" viewBox="0 0 1306.5 333.5"><path class="st0" d="M202.8 319.8c-1.2 0-.7-1.1-.4-2.2l13.1-41.9c.2-.4.5-1.3 1.1-1.3h2.7c.7 0 1 .9 1.1 1.3l13.1 41.9c.3 1.1.8 2.2-.4 2.2h-2.7c-1.1 0-1.1-.5-1.4-1.6l-4.5-13.1h-13.1l-4.5 13.1c-.3 1.1-.4 1.6-1.4 1.6h-2.7zm20.7-18.8l-5.3-18.1h-.2l-5.3 18.1h10.8zM262.8 299.3c0-4.6-2.8-7.5-7.6-7.5-4.9 0-8.5 5.7-8.8 8.3v17.8c0 .6.1 1.9-1.1 1.9H243c-1.1 0-1.1-1.2-1.1-1.9v-28.2c0-.7-.1-1.9 1.1-1.9h2.3c1.2 0 1.1 1.3 1.1 1.9v2.3c1.8-2.5 4.9-4.6 9.1-4.6 7.9 0 11.8 4.5 11.8 11.2v19.3c0 .6.1 1.9-1.1 1.9h-2.3c-1.1 0-1.1-1.2-1.1-1.9v-18.6zM277.8 333.5c-2.1 0-2.2-1-2-2.2 0-1.2-.1-2.2 2.2-2.2 5.6.2 7.3-3 8.6-5.5l-.1.3 1.4-3.6c.1-.2-.1-.3-.2-.5l-12-30.3c-.3-.7.2-1.7 1.2-1.7h1.2c.7 0 1.7-.1 2.2 1.1l10 25.4h.1l9.7-25.4c.5-1.2 1.3-1.1 2.2-1.1h1.2c1.1 0 1.5 1 1.2 1.7l-8.8 22.3-5.4 13.7c0 .1-.1.2-.1.3-1.8 3.4-4.2 8-12.6 7.7M329.4 294.3l4.1 16.7 5.2-21.9c.2-.9.8-1.3 2.1-1.3h1.1c1.1 0 1.4.7 1.2 1.4l-7.3 28.6c-.1.7-.5 2-1.1 2H333c-.7 0-1.1-.1-1.4-1.7l-4-16.5c-.1-.3-.2-.4-.5-.4-.2 0-.4.1-.5.4l-4 16.5c-.4 1.6-.8 1.7-1.4 1.7h-1.7c-.5 0-.9-1.3-1.1-2l-7.3-28.6c-.2-.7.2-1.4 1.2-1.4h1.1c1.4 0 1.9.4 2.1 1.3l5.2 21.9 4.1-16.7c.2-.9.5-.9 1.1-.9h2.3c.6 0 .9 0 1.2.9M372.5 299.3c0-4.6-2.8-7.5-7.6-7.5-4.9 0-8.5 5.7-8.8 8.3v17.8c0 .6.1 1.9-1.1 1.9h-2.3c-1.1 0-1.1-1.2-1.1-1.9v-41.5c0-.7-.1-1.9 1.1-1.9h2.3c1.2 0 1.1 1.3 1.1 1.9v15.7c1.8-2.5 4.9-4.6 9.1-4.6 7.9 0 11.8 4.5 11.8 11.2V318c0 .6.1 1.9-1.1 1.9h-2.3c-1.1 0-1.1-1.2-1.1-1.9v-18.7zM386.4 303.9c0-9.4 5.7-16.4 13.6-16.4 8 0 12.5 6 12.5 13.4 0 2.9-.3 3.4-2.1 3.4h-19.3v.9c0 4.8 3.2 10.7 9.1 10.7 3.9 0 6-1.3 7.3-4 .5-.9.8-.8 1.5-.8h2c.9 0 .8.6.6 1.3-1 3.2-4.6 7.5-11.5 7.5-9.1 0-13.7-7.7-13.7-16m4.9-3.6H408c0-4.2-2.3-8.9-7.9-8.9-5.3 0-8.8 5.4-8.8 8.9M445.4 297.9c-.7.1-1.1-.3-1.3-.8-.8-3.2-3.3-5.2-7.3-5.2-4.9 0-8.5 5.7-8.8 8.3V318c0 .6.1 1.9-1.1 1.9h-2.3c-1.1 0-1.1-1.2-1.1-1.9v-28.2c0-.7-.1-1.9 1.1-1.9h2.3c1.2 0 1.1 1.3 1.1 1.9v2.3c1.8-2.5 4.9-4.6 9.1-4.6 6.9 0 10.7 3.4 11.6 8.6.1.4-.2 1.1-.8 1.2-1 .2-1.8.4-2.5.6M455.5 303.9c0-9.4 5.7-16.4 13.6-16.4 8 0 12.5 6 12.5 13.4 0 2.9-.3 3.4-2.1 3.4h-19.3v.9c0 4.8 3.2 10.7 9.1 10.7 3.9 0 6-1.3 7.3-4 .5-.9.8-.8 1.5-.8h2c.9 0 .8.6.6 1.3-1 3.2-4.6 7.5-11.5 7.5-9.1 0-13.7-7.7-13.7-16m5-3.6h16.7c0-4.2-2.3-8.9-7.9-8.9-5.3 0-8.8 5.4-8.8 8.9M503.3 317.8c0 .6.1 2-2 2H498c-2 0-2-1.4-2-2v-3c0-.7-.1-2 2-2h3.2c2.1 0 2 1.4 2 2v3zM856.7 309.1c0-1 .1-1.9 1.2-1.9h2.6c.7 0 .9.5.9 1.4 0 4.2 3.3 7.3 10.7 7.3 5.2 0 8.8-3.9 8.8-7.9 0-5.2-3-7.9-9.8-10-9.3-2.8-13.4-6-13.4-12.2 0-6 5.2-11.9 13.7-11.9 7 0 13.4 3.7 13.4 10.2 0 .9-.5 1.4-1 1.4h-2.6c-1.1 0-1.2-.4-1.2-1.4 0-4.7-5.1-5.8-8.4-5.8-5.2 0-8.7 3.1-8.7 7.2 0 4.5 5.5 6.6 10.4 8.2 10.4 3.5 12.3 7.5 12.3 14.2 0 5.4-4.5 12.4-13.8 12.4-11.1-.1-15.1-5.7-15.1-11.2M915 319.8h-17.9c-.7 0-1.9.1-1.9-1.1v-1.8c0-1.2 1.3-1.1 1.9-1.1h7.5v-23.9h-5.4c-.7 0-1.9.1-1.9-1.1V289c0-1.2 1.3-1.1 1.9-1.1h8.6c1.2 0 1.1 1.3 1.1 1.9v26.1h6c.6 0 1.9-.1 1.9 1.1v1.8c.1 1.1-1.2 1-1.8 1m-6.5-39.3c0 .6.1 1.6-1.6 1.6h-2.3c-1.6 0-1.5-.9-1.5-1.6v-2.1c0-.7-.1-1.6 1.5-1.6h2.3c1.7 0 1.6 1 1.6 1.6v2.1zM930.8 319.8h-2.3c-1.1 0-1.1-1.2-1.1-1.9v-28.2c0-.7-.1-1.9 1.1-1.9h2.3c1.2 0 1.1 1.3 1.1 1.9v2.3c1.4-2.5 2.7-4.6 6.5-4.6 2.7 0 4.6 1.9 5.6 4.9 1.4-2.4 3.2-4.9 7.3-4.9 4.3 0 6.4 4.5 6.4 11.2v19.3c0 .6.1 1.9-1.1 1.9h-2.3c-1.1 0-1.1-1.2-1.1-1.9v-18.6c0-4.6-.8-7.5-3.7-7.5-2.6 0-4.8 2.3-4.8 7.1v19c0 .7.1 1.9-1.1 1.9h-2.3c-1.1 0-1.1-1.2-1.1-1.9v-18.6c0-4.6-.8-7.5-3.7-7.5-2.6 0-4.8 2.3-4.8 7.1v19c.3.6.3 1.9-.9 1.9M974.6 316v14c0 .6.1 1.9-1.1 1.9h-2.2c-1.1 0-1.1-1.2-1.1-1.9v-40c0-1.1-.2-2.1 1.3-2.1h1.8c1.5 0 1.3 1 1.3 2.1v1.4c1.3-1.8 4.6-3.9 8.2-3.9 6.5 0 11.7 4.9 12 12.6v6c0 5.7-4.4 13.7-12.1 13.7-5.2 0-7.7-2.7-8.1-3.8m15.9-10.4v-4.2c0-6.3-4.2-9.6-8.2-9.6-6.1 0-7.6 4.9-7.8 6.9-.3 2.3-.3 5.1-.2 7.9.1 3.5 2.3 9.1 7.7 9.1 6.2-.1 8.5-6.5 8.5-10.1M1021.7 319.8h-17.2c-.7 0-1.9.1-1.9-1.1v-1.8c0-1.2 1.3-1.1 1.9-1.1h7.5v-37.4h-5.4c-.7 0-1.9.1-1.9-1.1v-1.7c0-1.2 1.3-1.1 1.9-1.1h8.7c1.2 0 1.1 1.3 1.1 1.9v39.4h5.2c.6 0 1.9-.1 1.9 1.1v1.8c.1 1.2-1.1 1.1-1.8 1.1M1033.6 303.9c0-9.4 5.7-16.4 13.6-16.4 8 0 12.5 6 12.5 13.4 0 2.9-.3 3.4-2.1 3.4h-19.3v.9c0 4.8 3.2 10.7 9.1 10.7 3.9 0 6-1.3 7.3-4 .5-.9.8-.8 1.5-.8h2c.9 0 .8.6.6 1.3-1 3.2-4.6 7.5-11.5 7.5-9.1 0-13.7-7.7-13.7-16m4.9-3.6h16.7c0-4.2-2.3-8.9-7.9-8.9-5.3 0-8.8 5.4-8.8 8.9M1083.7 317.8c0 .6.1 2-2 2h-3.2c-2 0-2-1.4-2-2v-3c0-.7-.1-2 2-2h3.2c2.1 0 2 1.4 2 2v3zM4.3 319.5c-4.6 0-4.3-3.7-4.3-7.7V142.3c0-2.8-.3-7.7 4.3-7.7h44.1c37 0 62.6 17.9 62.6 54.2v77.3c0 22.8-20.3 53.3-62.6 53.3H4.3zm44.1-17c31.4 0 43.4-23.1 43.4-37v-76.1c0-29.6-22.8-37.9-43.4-37.9H22.2c-1.9 0-3.1.3-3.1 2.5v145.1c0 2.8.3 3.4 3.4 3.4h25.9zM412.5 56.7v75.8c0 39.4-27.4 58.5-57.3 58.5s-57.3-19.1-57.3-58.5V56.7c0-36.4 28-56.7 57.3-56.7s57.3 20.3 57.3 56.7m-19.1 0c0-24-18.2-38.8-38.2-38.8-20 0-38.2 14.8-38.2 38.8v75.8c0 25.9 17.6 40.7 38.2 40.7s38.2-14.8 38.2-40.7V56.7zM615.2 319.5H605c-4.6 0-4.9-3.7-4.9-7.7V142.3c0-4 .3-7.7 4.9-7.7h10.2c2.1 0 4 1.9 4 5.5V211c0 2.8 1.5 2.8 3.4 2.8h65.6c1.9 0 3.1-.3 3.1-2.8v-70.9c0-3.7 1.9-5.5 4-5.5h10.2c4.6 0 4.9 3.7 4.9 7.7v169.5c0 4-.3 7.7-4.9 7.7h-10.2c-2.2 0-4-1.9-4-5.5v-80.7c0-2.2-1.2-2.5-3.1-2.5h-65.9c-1.9 0-3.1.3-3.1 2.5V314c0 3.6-1.8 5.5-4 5.5M1013.1 56.7v75.8c0 39.4-27.4 58.5-57.3 58.5s-57.3-19.1-57.3-58.5V56.7c0-36.4 28-56.7 57.3-56.7 29.3 0 57.3 20.3 57.3 56.7m-19.1 0c0-24-18.2-38.8-38.2-38.8-20 0-38.2 14.8-38.2 38.8v75.8c0 25.9 17.6 40.7 38.2 40.7s38.2-14.8 38.2-40.7V56.7zM1215.6 319.5h-10.2c-4.6 0-4.9-3.7-4.9-7.7V142.3c0-2.8-.3-7.7 4.3-7.7h49c26.5 0 52.7 15.7 52.7 51.5 0 40.7-29.9 54.9-51.2 54.9h-32.7c-1.9 0-3.1.3-3.1 2.5v70.6c.1 3.5-1.7 5.4-3.9 5.4m7.4-95.6h32.4c22.2 0 32.4-17.9 32.4-37.3 0-26.5-21.3-35.1-35.8-35.1h-29.3c-1.9 0-3.1.3-3.1 2.5v67.2c0 2.7 1.6 2.7 3.4 2.7"/><path class="st1" d="M1147.4 171.7c0 23.8-86.2 23.8-86.2 0s19.3-43.1 43.1-43.1 43.1 19.3 43.1 43.1"/><path class="st2" d="M1173.5 193.3c-8.2 0-12.4-4.8-15.7-8.7-3.4-3.9-5.6-6.1-10.1-6.1s-6.7 2.2-10.1 6.1c-3.4 3.9-7.6 8.7-15.7 8.7-8.2 0-12.3-4.8-15.7-8.7-3.4-3.9-5.5-6.1-10.1-6.1-4.5 0-6.7 2.2-10.1 6.1-3.4 3.9-7.6 8.7-15.7 8.7s-12.3-4.8-15.7-8.7c-3.4-3.9-5.5-6.1-10.1-6.1-2.1 0-3.7-1.7-3.7-3.7 0-2.1 1.7-3.7 3.7-3.7 8.1 0 12.3 4.8 15.7 8.7 3.4 3.9 5.5 6.1 10.1 6.1 4.5 0 6.7-2.2 10.1-6.1 3.4-3.9 7.6-8.7 15.7-8.7s12.3 4.8 15.7 8.7c3.4 3.9 5.5 6.1 10.1 6.1 4.5 0 6.7-2.2 10.1-6.1 3.4-3.9 7.6-8.7 15.7-8.7 8.2 0 12.4 4.8 15.7 8.7 3.4 3.9 5.6 6.1 10.1 6.1 2.1 0 3.7 1.7 3.7 3.7.1 2.1-1.6 3.7-3.7 3.7"/><path class="st3" d="M1125 73.3c-1.8-1.1-4.2-.5-5.3 1.3-1.9 3.1-18.2 30.5-18.2 43.9 0 11.7-.5 30.3-.5 33.1v.4h.1c.2 2 1.8 3.6 3.9 3.6 2.2 0 3.9-1.8 3.9-3.9 0-.2-.1-.3-.1-.5.1-4.3.5-21.6.5-32.7 0-9.6 12.3-32.1 17.1-39.9 1-1.9.4-4.2-1.4-5.3"/><path class="st4" d="M1128 66.3c-.1-.1-.1-.2-.2-.2-12.3-12.3-32.2-12.3-44.4 0-1.2 1.2-2.2 2.5-3.1 3.8 0 .3-.2.6-.2.9 7-1 14.1-.1 20.7 2.7-6 5.3-10 13-10.6 21.7-.1 1.7 0 3.3.2 4.9.2.3.3.6.5.8 6.5-7.7 16-12.8 26.6-13.6 5.3 8 7.3 17.6 5.9 26.7h.2c1.5-1.1 3-2.2 4.3-3.5 5.4-5.4 8.4-12.2 9.1-19.3 6.1 3.1 11.3 7.7 15 13.4 0-.1.1-.1.1-.2.4-1.8.8-3.6.9-5.5.8-15.7-10.1-29.5-25-32.6z"/><path class="st5" d="M498 88.5l38.4 16.3 9.6-22.5L507.6 66 498 88.5zm38.7 24.7l-45-19.1c-1.8-.8-2.7-3-1.9-4.9l12.5-29.5c.8-1.9 3-2.9 4.8-2.1l45 19.1c1.8.8 2.7 3 1.9 4.9l-12.5 29.5c-.8 1.9-2.9 2.8-4.8 2.1"/><path transform="rotate(23.001 505.12 125.08)" class="st2" d="M449.2 86.5H561v77.2H449.2z"/><path class="st1" d="M476.7 102.6l.4 10.5 21.3-1.5-.4-10.5-21.3 1.5zm-4.6 18c-1.2-.5-2.1-1.7-2.2-3.2l-.7-18c0-1 .3-2 1-2.7.7-.8 1.6-1.2 2.5-1.3l28.6-2c2-.1 3.7 1.4 3.8 3.5l.7 18c0 1-.3 2-1 2.7-.7.8-1.6 1.2-2.5 1.3l-28.6 2c-.6 0-1.2-.1-1.6-.3"/><path class="st0" d="M530 133.8c-4.6-1.9-10 .4-12 5.2s0 10.3 4.6 12.2c4.6 1.9 10-.4 12-5.2 2.1-4.8 0-10.3-4.6-12.2m-10.3 24.4c-8.3-3.5-12-13.4-8.4-22 3.7-8.6 13.4-12.8 21.7-9.3 8.3 3.5 12 13.4 8.4 22-3.7 8.6-13.5 12.8-21.7 9.3"/><g><path class="st5" d="M855.3 79.3c-3.2-3.2-17.4 7-22.3 11.8l-26.2 26.6-59.5-40.3-6.4 6.5 50.4 49.6-18.9 19.2c-4.2 4.2-26-3-26-3l-2.7 2.8 14.7 14.5-5.3 5.4 2.6 2.6 9.8-1.6 13.9 13.7 3.8-3.8-6.1-11.7.3-.1 25.9-26.3 45.4 44.7 6.4-6.5-37.1-53.1 26.5-26.9.5-.6c4.7-5.4 13.4-20.4 10.3-23.5"/><path class="st0" d="M833.3 107.7c-.8.1-1.5-.2-2.1-.8-1.1-1.1-1.1-2.8 0-3.9l7.8-7.9c1.1-1.1 2.8-1.1 3.9 0s1.1 2.8 0 3.9l-7.8 7.9c-.5.5-1.2.8-1.8.8m-15.6 15.8c-.8 0-1.5-.2-2.1-.8-1.1-1.1-1.1-2.8 0-3.9l7.8-7.9c1.1-1.1 2.8-1.1 3.9 0s1.1 2.8 0 3.9l-7.8 7.9c-.5.5-1.2.8-1.8.8m-15.6 15.9c-.8.1-1.5-.2-2.1-.8-1.1-1.1-1.1-2.8 0-3.9l7.8-7.9c1.1-1.1 2.8-1.1 3.9 0s1.1 2.8 0 3.9l-7.8 7.9c-.5.4-1.1.7-1.8.8m-15.6 15.8c-.8 0-1.5-.2-2.1-.8-1.1-1.1-1.1-2.8 0-3.9l7.8-7.9c1.1-1.1 2.8-1.1 3.9 0s1.1 2.8 0 3.9l-7.8 7.9c-.5.5-1.1.7-1.8.8"/><path class="st1" d="M768.4 160.6c.2 3-2 5.5-5 5.7-3 .2-5.5-2.1-5.7-5-.2-3 2-5.5 5-5.7 3-.2 5.5 2.1 5.7 5M824.8 147.5c.2 3-2 5.5-5 5.7-3 .2-5.5-2-5.7-5-.2-3 2-5.5 5-5.7 2.9-.2 5.5 2 5.7 5M796.3 116.5c.2 3-2 5.5-5 5.7-3 .2-5.5-2-5.7-5-.2-3 2-5.5 5-5.7 2.9-.2 5.5 2.1 5.7 5"/></g><path class="st3" d="M248.6 179.8L218.1 134l22.1-8.6-30.1-14.9L180 95.6l2.1 33.5 2.2 33.5 16.9-17.4 30.5 45.9z"/><g><path class="st4" d="M201.8 94.7c-1.1 0-2.1-.5-2.7-1.4-1-1.5-.6-3.4.9-4.4l17.8-12.1c1.5-1 3.4-.6 4.4.9 1 1.5.6 3.4-.9 4.4l-17.8 12.1c-.5.3-1.1.5-1.7.5M149.5 128c-1.1 0-2.1-.5-2.7-1.4-1-1.5-.6-3.4.9-4.4l17.8-12.1c1.5-1 3.4-.6 4.4.9 1 1.5.6 3.4-.9 4.4l-17.8 12.1c-.5.3-1.1.5-1.7.5M191.3 84.3c-.7.8-1.8 1.2-2.9.9-1.7-.3-2.8-2-2.5-3.7l4-21.1c.3-1.7 2-2.8 3.7-2.5 1.7.3 2.8 2 2.5 3.7l-4 21.1c-.2.6-.4 1.2-.8 1.6M175 83c0 1.1-.5 2.1-1.4 2.7-1.5 1-3.4.6-4.4-.9L157.1 67c-1-1.5-.6-3.4.9-4.4 1.5-1 3.4-.6 4.4.9l12.1 17.8c.3.6.5 1.2.5 1.7M167.1 94.5c.8.7 1.2 1.8.9 2.9-.3 1.7-2 2.8-3.7 2.5l-21.1-4c-1.7-.3-2.8-2-2.5-3.7.3-1.7 2-2.8 3.7-2.5l21.1 4c.7.2 1.2.4 1.6.8"/></g></svg>