<svg xmlns="http://www.w3.org/2000/svg" viewBox="0 0 744.09448819 1052.3622047" class="GMGFace"><path d="M52.002 549.073c13.432-8.218 30.038-13.666 45.082-24.393 38.175-11.344 82.721 5.215 48.57-35.08 29.453-13.146 68.905-61.296 63.45-71.688-1.03-4.93-.77-14.405 6.74-13.369 9.22.006 9.717 5.028 12.235 7.243 3.881 8.544 2.389 18.618 6.719 26.638 1.285 4.16 4.098 8.787 5.426 12.295 12.744 13.12 32.265 34.06 40.883 48.804 45.364 62.67 32.16 52.186 125.895 55.764 23.378 3.185 25.352-6.112 33.75-10.044 27.479-39.542 27.121-3.6 11.505-5.323-5.242 5.283-14.252 16.738-15.744 17.433-6.603 2.83-14.24 13.184-24.701 18.965-4.509 20.729-14.522 53.631 3.082 75.752 2.26 4.29-.895.492-2.188.332-33.281 6.98-76.445-9.291-98.624-34.64-9.517-3.376 2.446 13.799 3.24 15.264 11.395 23.25 17.814 31.352 41.18 32.294l10.5 6.67c11.953 7.594 30.52 24.816 33.668 31.231 1.08 2.199 3.025 7.373 4.324 11.498 5.074 18.3 23.853.23 31.986-9.559-2.303-11.26-7.002 9.446-4.402 1.22-40.67-10.553 36.71-101.188 40.844-136.16.587-13.61 1.747-25.889 3.026-32 .345-1.65.766-5.743.936-9.095-27.97-31.862 46.788-50.886 36.62-96.906C973.643 602.758 100.326 1652.28 52.002 549.073zm258.596 63.805c.742 1.2 6.16 1.043 6.93-.202.332-7.102-4.74-12.498-7.218-15.85-19.941-27.736-34.466-52.651-53.764-75.923-3.866-7.586-5.39 3.567-3.796 3.817 2.274 12.369 7.612 24.34 12.73 32.94 12.01 25.109 34.086 50.29 45.118 55.218zm90.718-126.54c-23.264 6.842 5.895 5.052 8.863 9.788m0 0c-4.798 9.941-3.62 2.226-4.732 10.343-.99 14.86-20.946 9.26-25.79 13.119-3.254 1.596-7.98-.05-11.18-.227-17.152-.89-23.768-3.762-29.864-13.46 1.068-4.272-11.334-14.214-9.4-15.002-14.006-9.72-20.681-2.353-19.163 4.517-8.575 38.572-21.128-20.304-9.902-20.696-2.267-10.714 29.745-12.315 29.94-7.657 8.085-2.448 13.422-8.58 20.857-16.159 2.8-3.519-10.393-9.233-13.36-15.332-.841-1.844-2.271-4.365 1.25-7.278 17.564 10.02 38.803-1.464 55.998 7.963 4.784-3.978 8.04-7.562 13.071-7.4 3.506.123 5.096.598 5.096 1.521-2.873 2.44-5.76 4.772-7.819 8.588-2.56 4.736-2.976 6.276-7.187 16.947-7.532 15.39-15.919 15.072-30.192 10.996-19.055 28.596 69.22-2.55 77.028 5.106 2.872 13.323-19.902 10.168-30.33 11.14-9.041.81-12.604 1.67-13.184 3.183m-8.66 4.396c-.489-1.272-6.083-2.667-12.406-.144m-16.636-.056c2.795.488 17.218 1.25 16.103-.06-3.711-1.436-13.484-2.797-16.103.06zm171.397-155.062c19.023-.123 3.697 15.847 3.232 19.747-.463 4.513-.057 8.048-4.567 8.198-4.218-1.909.227-26.831 1.335-27.945zm-326.261 23.01c-11.496-13.448-6.13-28.536-6.349-39.013.233-6.72-1.083-4.351-4.087-7.292-4.89-1.075-5.503 3.84-10.024 6.525-3.34-9.334 5.737-29.026 6.756-46.983 2.053-8.955.37-12.347.903-22-21.15-38.514 51.662-131.567 24.972-159-2.27 0-.74-5.14 2.307-7.742 23.79-14.584 64.958-57.635 88.927-59.258 14.836-5.71 23.433-3.979 35.344-3.735 5.82.125 9.499-.273 9.382-1.015-.686-4.342 1.968-9.64 4.9-9.785 12.075-4.716 27.12 9.619 39.157-3.891 12.542 1.723 33.26 8.814 37.119 10.564 4.522 2.024 4.997 2.502 10.424 10.51 4.177 6.162 6.794 7.257 16.22 6.785 9.52-.427 10.305 3.807 13.286 12.91 5.557 9.92 24.314 31.473 31.762 34.1 13.845 18.108 44.215 49.24 42.81 67.324-2.593 16.689 3.265 47.857-2.157 61.391-.249.402-.466 5.803-.483 12.001-1.158 13.634-1.786 31.092.545 42.558 1.829 4.561-4.678 42.675 3.693 34.062 2.567 1.313-.982 25.341-5.04 27.221-1.579 0-3.118-2.55-8.951-6.427-10.73-4.5-14.425-4.602-18.698-24.573-4.278-3.817.474-24.169.531-18.622 7.99 12.18 16.068-2.005 11.283-15.378-3.39-27.758-17.225-63.974-32.561-81.284-12.487-8.823-30.535-12.936-44.38-14.106-29.202 4.27-52.335 9.614-74.912 21.504 21.128 7.649-85.716-21.258-63.323-23.114-17.495-18.493-50.599 1.352-67.243 16.878-17.106 17.06-13.819 22.655-14.987 24.295-6.665 19.12-3.012 39.565-8.863 72.827-.367 3.902-2.857 19.763-2.366 20.716-8.149 31.16-9.25 38.762-13.578 61l-.57 2.216-1.75-2.17zM435 357.085c-.825-.307-3.773-.676-6.551-.82-9.547-1.48-44.125-16.451-45.803-31.296-4.737-5.111 9.197-13.996 11.586-10.908 11.346-1.815 34.672-4.025 43.858-3.642 9.492 3.53 40.281-1.9 48.751 1.592 13.59 9.764-1.372 21.293-.242 26.249.521 2.074.066 2.39-5.072 3.54-24.59-6.46-40.328 17.297-46.527 15.285zm-146.95-18.01c-6.945-2.222-14.868-3.775-21.546-4.782-22.752-9.036-25.124-33.782-.804-37.182 14.722-3.107 34.247-5.135 49.042-4.492 8.067.528 34.132-1.117 36.262 10.976.768 2.717 5.283 1.18 6.833 3.153.184.534 1.196.971 6.413 7.37 5.218 6.398 1.754 9.983-7.746 16.862-9.5 6.879-10.091 7.165-10.813 8.153-6.341 4.517-13.627-.12-20.687 3.214 16.761 11.025-12.528 10.948-19.474 10.605-7.351-1.144-11.425-9.554-17.48-13.876z"/></svg>