<svg
  class="Hand"
  viewBox="0 0 610 690"
  xmlns="http://www.w3.org/2000/svg" version="1.1"
  xmlns:xlink="http://www.w3.org/1999/xlink">
  <title>Hand waving and saying hello</title>
  <desc>This hand welcoming you to my page</desc>
  <g
    id="layer1"
    transform="translate(-110.4201,-133.59151)">
    <path
       d="M 387.09812,318.28872 C 405.91879,158.97995 314.05256,149.06478 299.4481,313.98521 l 22.31222,6.38644 c 38.33908,3.43589 35.46055,2.69752 65.3378,-2.08293 z"
       class="Hand__indexFingerTip" />
    <path
       d="m 359.56716,559.25696 c 69.85449,15.64042 116.15129,62.55478 111.62185,133.34014"
       class="Hand__palm" />
    <path
       d="m 550.07627,311.76389 c 15.69917,12.09354 73.5699,11.59304 82.78821,-0.67736 28.00799,-157.59136 -97.98229,-154.886 -82.78821,0.67736 z"
       class="Hand__ringFingerTip" />
    <path
       d="m 139.23002,507.71227 c -5.86906,-20.66115 -13.42352,-44.57255 -23.37622,-72.60847 -25.666394,-28.31623 81.37404,-36.27724 101.30451,37.13142 -7.1287,21.7433 -16.75431,17.25013 -31.44402,27.26984 z"
       class="Hand__thumbFingerTip" />
    <path
       d="m 269.76575,605.89487 c 116.00878,67.5124 -0.38327,-116.78111 20.10423,-188.64599 36.68652,-40.00388 69.91039,-38.41299 89.11328,3.62305 -2.54104,21.60825 5.79344,52.76254 25.13086,74.98047 21.01098,-8.97241 10.13731,-99.03128 10.13731,-99.03128 35.35663,-20.18749 69.21218,-19.35316 96.77479,-2.03437 -0.66614,31.08377 5.35436,109.91192 5.35436,109.91192 29.72235,-7.52434 19.72362,-47.1519 26.45982,-89.36943 31.27355,-18.30465 55.1171,-16.56997 82.3457,0.22852 -3.76081,54.39476 -26.06509,144.96446 8.23633,118.59151 1.90723,-34.08665 9.31734,-72.8019 11.1242,-101.09234 25.71891,-15.5767 43.18693,-16.03609 70.1974,2.54493 1.38542,28.24312 -10.11621,65.77365 -8.78254,97.00473 30.82286,260.80396 -230.98342,515.18671 -460.43276,216.28375 -48.2733,-39.60301 -47.09218,-64.03272 -76.97994,-109.16204 15.1215,-27.21848 57.81383,-59.60369 101.21696,-33.83343 z"
       class="Hand__hand" />
    <path
       d="m 444.28571,279.50506 -24.06435,-1.18302 c 4.41632,-145.68654 38.63233,-144.56047 64.40029,-144.22913 30.13541,0.38751 46.26844,16.55072 18.67,144.93821 -23.36472,13.7226 -43.31688,4.10973 -59.00594,0.47394 z"
       class="Hand__middleFingerTip" />
    <path
       d="m 714.07256,335.18158 c 14.94142,-111.84059 -70.91716,-124.60568 -64.56252,-2.18931 34.67187,10.15902 34.9477,19.56474 64.56252,2.18931 z"
       class="Hand__pinkyFingerTip" />
    <path
       d="m 298.99153,314.28688 c -3.13479,34.15678 -9.67276,67.46276 -9.28572,102.5 28.15731,30.31953 67.37436,27.92363 88.92858,3.92857 6.85171,-34.28571 4.36197,-68.57143 7.7451,-102.85714 -26.42628,-23.61029 -70.84155,-19.75405 -87.38796,-3.57143 z"
       class="Hand__indexFingerCenter" />
    <path
       d="m 420.53693,276.17505 -6.06091,119.198 c 23.06515,10.758 64.31304,11.83236 94.95434,-1.01015 L 504.3796,278.19536 c -26.93741,-18.85073 -52.35958,-21.95581 -83.84267,-2.02031 z"
       class="Hand__middleFingerCenter" />
    <path
       d="m 543.27047,415.07102 7.07107,-102.53048 c 27.77919,-17.28851 54.54824,-19.10284 83.33758,-2.02031 l -8.58629,106.06602 c -26.41872,4.6273 -54.08194,1.78767 -81.82236,-1.51523 z"
       class="Hand__ringFingerCenter" />
    <path
       d="m 644.7908,432.24362 4.54568,-97.98479 c 16.41482,-14.98487 40.82491,-19.37378 63.63961,1.51522 l 1.01016,98.99495 c -19.65206,7.49961 -42.6772,8.75813 -69.19545,-2.52538 z"
       class="Hand__pinkyFingerCenter" />
    <path
       d="m 168.50387,637.80966 c -1.64479,-47.66493 -19.52423,-87.21253 -29.29442,-130.81475 24.83101,-34.33253 52.32217,-39.37722 78.28682,-34.34519 l 52.52793,132.83506 c -17.59993,25.78749 -59.85765,44.23565 -101.52033,32.32488 z"
       class="Hand__thumbFingeCenter"/>
  </g>
</svg>
