<svg xmlns="http://www.w3.org/2000/svg" viewBox="0 0 299.972 85.868"><g fill="#676767"><path d="M122.359 47.433l5.326-13.655h3.093l5.352 13.655h-3.028L131.93 44.3h-5.537l-1.197 3.132h-2.837zm8.804-5.283l-1.971-5.632h-.041l-1.975 5.632h3.987zm-3.52-9.257l1.627-2.855h2.677l-2.677 2.855h-1.627zM147.443 34.024l-.256 2.248a7.165 7.165 0 0 0-2.782-.588c-.32-.003-.64.053-.97.163a1.802 1.802 0 0 0-.828.583c-.229.277-.34.66-.352 1.155.018.46.227.822.624 1.087.4.263.893.499 1.487.709.59.211 1.178.462 1.771.76a4.212 4.212 0 0 1 1.484 1.24c.397.528.604 1.244.623 2.153-.013.99-.253 1.791-.717 2.397-.463.61-1.084 1.05-1.852 1.322-.772.276-1.624.411-2.557.407a11.4 11.4 0 0 1-1.27-.063c-.36-.045-.712-.102-1.057-.182-.343-.078-.732-.17-1.178-.285l.259-2.464a6.55 6.55 0 0 0 3.088.837 3.39 3.39 0 0 0 1.09-.178c.375-.125.684-.313.941-.577.253-.257.387-.592.394-1a1.451 1.451 0 0 0-.617-1.196c-.402-.289-.9-.541-1.486-.753a18.453 18.453 0 0 1-1.773-.767 4.24 4.24 0 0 1-1.484-1.216c-.401-.519-.607-1.225-.622-2.117.01-1.009.246-1.822.702-2.434a3.824 3.824 0 0 1 1.763-1.328 6.227 6.227 0 0 1 2.31-.4c1.172-.005 2.264.16 3.265.487M152.663 47.433v-13.66h2.737v5.872l4.935-5.871h3.363l-5.615 6.442 5.848 7.217h-3.578l-4.91-6.34h-.043v6.34h-2.737zM169.873 40.567a7.537 7.537 0 0 0 .373 2.379c.255.746.665 1.358 1.225 1.834.569.472 1.312.723 2.24.735.925-.012 1.674-.263 2.239-.735.564-.477.968-1.088 1.225-1.834a7.332 7.332 0 0 0 .37-2.379 6.754 6.754 0 0 0-.387-2.334 4.181 4.181 0 0 0-1.242-1.811c-.569-.47-1.303-.71-2.205-.73-.902.02-1.637.26-2.202.73a4.106 4.106 0 0 0-1.242 1.81 6.875 6.875 0 0 0-.394 2.335m-2.852 0c0-1.41.262-2.631.768-3.683a5.661 5.661 0 0 1 2.26-2.451c.993-.586 2.213-.882 3.662-.89 1.434.008 2.647.31 3.64.902a5.781 5.781 0 0 1 2.268 2.464c.519 1.048.78 2.272.78 3.658 0 1.384-.261 2.61-.77 3.674a5.892 5.892 0 0 1-2.262 2.507c-.994.6-2.213.908-3.656.917-1.46-.009-2.69-.312-3.685-.913a5.736 5.736 0 0 1-2.246-2.482c-.507-1.065-.76-2.298-.76-3.703m5.085-7.675l1.626-2.855h2.68l-2.68 2.855h-1.626zM184.837 47.433v-13.66h2.736V45.28h5.308v2.154h-8.044zM196.344 33.778h2.735v13.651h-2.735V33.778zM211.143 33.778h2.74v13.654h-2.74V33.778zm-.234-.886l1.625-2.853h2.679l-2.679 2.853h-1.625zM226.358 34.024l-.252 2.248a7.172 7.172 0 0 0-2.778-.588 2.976 2.976 0 0 0-.977.163c-.33.111-.606.307-.828.583-.222.277-.342.66-.345 1.155.01.46.217.822.62 1.087.398.263.89.499 1.484.709.592.211 1.18.462 1.772.76a4.18 4.18 0 0 1 1.482 1.24c.402.528.609 1.244.629 2.153-.01.99-.251 1.791-.723 2.397-.461.61-1.08 1.05-1.85 1.322-.774.276-1.626.411-2.558.407-.482 0-.908-.022-1.27-.063-.36-.045-.71-.102-1.052-.182-.348-.078-.738-.17-1.178-.285l.254-2.464a6.54 6.54 0 0 0 3.09.837c.354.005.721-.058 1.088-.178.371-.125.685-.313.94-.577.258-.257.387-.592.4-1-.013-.51-.222-.907-.626-1.196-.398-.289-.89-.541-1.484-.753a19.466 19.466 0 0 1-1.772-.767 4.263 4.263 0 0 1-1.482-1.216c-.4-.519-.606-1.225-.623-2.117.011-1.009.249-1.822.7-2.434a3.84 3.84 0 0 1 1.764-1.328 6.217 6.217 0 0 1 2.306-.4c1.18-.005 2.268.16 3.27.487M231.58 47.433v-13.66h2.74V45.28h5.3v2.154h-8.04zM241.93 47.433l5.32-13.66h3.09l5.363 13.66h-3.031l-1.174-3.13h-5.533l-1.198 3.13h-2.837zm8.804-5.286l-1.978-5.632h-.032l-1.982 5.632h3.992zM107.672 47.433v-13.66h2.738v5.52h5.478v-5.52h2.738v13.66h-2.738v-5.984h-5.478v5.984h-2.738zM259.266 47.433v-13.66h3.359l5.208 10.214h.038V33.774h2.62v13.659h-3.346l-5.219-10.212h-.042v10.212h-2.618zM278.216 35.905v9.348h1.528c.78 0 1.503-.183 2.184-.547a4.386 4.386 0 0 0 1.663-1.592c.42-.694.64-1.54.656-2.532-.015-.995-.236-1.838-.656-2.537a4.37 4.37 0 0 0-1.663-1.59 4.59 4.59 0 0 0-2.184-.55h-1.528zm-2.738 11.501V33.75h3.736c1.42-.014 2.723.175 3.905.57a5.65 5.65 0 0 1 2.874 2.08c.72 1 1.086 2.392 1.108 4.183-.022 1.788-.388 3.18-1.108 4.175-.726 1.001-1.683 1.692-2.874 2.083-1.182.396-2.485.583-3.905.566h-3.736zM299.168 34.024l-.252 2.248a7.146 7.146 0 0 0-2.78-.588 2.982 2.982 0 0 0-.973.163 1.83 1.83 0 0 0-.831.583c-.222.277-.338.66-.349 1.155.02.46.226.822.626 1.087.397.263.896.499 1.485.709.59.211 1.178.462 1.767.76a4.264 4.264 0 0 1 1.492 1.24c.395.528.602 1.244.62 2.153-.012.99-.25 1.791-.718 2.397-.461.61-1.083 1.05-1.854 1.322-.773.276-1.62.411-2.552.407-.487 0-.913-.022-1.272-.063-.36-.045-.71-.102-1.053-.182-.346-.078-.738-.17-1.183-.285l.257-2.464a6.569 6.569 0 0 0 3.094.837 3.4 3.4 0 0 0 1.089-.178c.37-.125.678-.313.934-.577.257-.257.391-.592.402-1-.017-.51-.224-.907-.626-1.196-.397-.289-.894-.541-1.482-.753-.59-.22-1.184-.475-1.776-.767a4.243 4.243 0 0 1-1.48-1.216c-.4-.519-.606-1.225-.625-2.117.019-1.009.251-1.822.697-2.434a3.908 3.908 0 0 1 1.769-1.328 6.239 6.239 0 0 1 2.309-.4c1.178-.005 2.264.16 3.266.487M34.914 26.865c.378.898 4.129 8.75 4.613 10.158-.145.016-.374-.068-.463.008-1.872-2.975-3.486-6.18-5.346-9.166.1-.286.85-1.11 1.196-1M53.113 37.055c-.102.618 1.437 5.004 3.869 3.712-.002.484-.76 1.653-1.653 1.653-2.799 0-2.854-4.013-2.793-4.616.03-.309.198-.87.577-.749M41.466 46.295c-.977-1.209-2.324-1.469-3.48-.78-.191.112-.302.3-.552.288-.106-.787.781-1.709 1.358-1.984 1.771-.621 3.41.094 3.308 2.582-.164.341-.567.268-.634-.106M25.714 44.23c-.253.263-.65.482-1.177.614.073-.188.232-.733-.269-1.033-.075.463-.397.593-.645.758-.037.157-.025.205 0 .286-.271-.195-.253-.215-.376-.542a.407.407 0 0 0 .217-.347c.066-.692-.575-.904-1.1-.698-.03-.093-.103-.203-.113-.286.338-.277.909-.3 1.323-.218.892.175 1.476 1.214 2.14 1.466M26.573 44.7c.13.18.126.184.093.362-.025.128-.168.47-.255.588-.401.554-1.214.985-1.893.746-.414-.148-1.383-.419-1.02-1.075 1.044.477 1.913-.397 2.577-.849.2.093.362.196.498.228M40.317 48.291c-.121 1.03-2.37 1.04-3.027.419-.01.342-.167.61-.331.834-.25.34-.842.925-1.477.913-2.275-.046-3.118-2.998-2.546-3.385.434 1.693 1.968 1.798 2.568 1.47.581-.316.586-1.407.71-2.136.302.023.736-.108 1.052-.084.058.265.164.75.282 1.014.211.471.694.992 1.36 1.103.802.134.95-.073 1.41-.148"/><path d="M37.583 49.83c.482.173.304.777 1.024.734.537-.032.493-.558.73-.919.71.575-.103 2.13-.871 2.192-.16.012-.462-.03-.633-.143-.568-.364-.82-1.2-.25-1.863M44.427 53.797c-.01.233-.158.575-.158.995-.151 3.007 1.511 3.071 2.451 4.208.405.489 1.641 1.983 1.66 3.137.008.476.008 1.72-.62 1.745-.152-.01-.017-.464-.737-1.296-6.675-5.525-3.202-9.37-2.596-8.79M41.284 57.388c-.342.004-.958-.775-1.683-.416-.22.108-.198.38-.424.545-.183-.029-.23-.176-.34-.27.086-.868.694-1.568 1.45-1.696.652-.108.877.77 1.026 1.34.048.176.111.41-.029.497M39.104 57.768c-.035 1.507 1.161 1.294 1.55.907.18-.277.354-.402.48-.329.268.98-.395 1.419-.665 1.672-.324.356-1.569.65-1.975-.897-.15-.563.149-1.453.61-1.353M38.827 61.644c.413.253.8.41 1.232.25.21-.081.347-.332.62-.25.271.618-.435 1.322-.974 1.438-.698.152-1.505-.44-1.572-1.122-.025-.267-.045-.905.265-.91.283-.004.29.393.43.594M57.223 65.202c-.609-.773-2.441-1.773-3.367-2.36-1.172-.74-2.386-1.358-2.707-2.682 1.41.697 2.689 1.2 3.27 2.666.774.515.463-1.636.343-2.057-.375-1.309-.907-1.94-1.913-2.657-.644-.46-3.438-2.554-3.907-2.845-1.146-.704-1.24-1.264-1.33-1.264-.76-.005-2.099 2.333 1.883 5.195.401.29.81.52 1.211.73-.023.002-.04.01-.065.01.074 3.44.057 4.669 4.424 6.905 2.244 1.43 1.487 2.876 2.01 3.29 1.169-.307 1.756-3.344.148-4.93M32.715 63.543c-1.032-.414-1.45.46-.784 1.456.37.443 1.7 2.336-.456 2.435 1.429-1.84-3.274-2.735-.79-4.458a1.767 1.767 0 0 1 1.745.07c.145.093.393.296.285.497"/><path d="M47.324 65.622c.127.033.067.233.125.327.385.76 1.55 1.784 2.662 1.878.344.029.857.015 1.16-.152.064.648-.795 1.132-1.189 1.234-.43.111-.872.084-1.609-.052-.989-.18-2.176-1.213-3.083-.644-.36.226-.886.655-.683 1.614-1.326.287-1.356-1.19-1.314-1.772-2.53.212-3.596 6.056-10.306 4.96-.746-.119-2.207-.622-2.785-1.077-4.573-3.592.294-6.771 1.041-4.945-2.265 1.027-.965 5.345 4.969 2.513.627.856-.157 1.763-.772 2.305 2.283.043 4.688-3.438 5.354-4.034.81-.719 2.57-1.967 3.843-1.247.335-1.112-3.582-1.993-2.1-3.949.613 1.82 3.864 1.485 4.11 3.187.206-.268.416-.215.577-.146"/><path d="M40.162 66.34c.227.15.364.35.398.599.103.76-1.1 1.083-1.187.216.453.023.81-.423.79-.816M46.26 68.547c.144.96 1.543 2.113 2.142 2.027-.281-.774.504-1.404 1.62-1.205.716.125 1.045.737 1.614 1.017.691.338 1.292.618 2.178-.046.72.74-.247 1.902-1.15 1.99-.798.077-1.553-.296-1.88-.748-.32-.441-.332-.948-.598-1.351-.367-.258-1.367-.425-1.464.257.076.435.81.137 1.193.004.123.906-.962 1.96-1.994 1.993-.193.007-.484-.016-.636-.07-.866-.326-1.714-1.067-1.797-2.168-.058-.735.112-1.738.773-1.7M38.49 67.827c.24.116.355.565.345.8-.016.291-.393.88-.66.927-.444.075-.686-.29-.77-.828.622-.007 1.013-.274 1.084-.9"/><path d="M45.091 70.33c.027.44.024.879.285 1.266.487.718 1.261 1.7 3.313 1.184-.168 1.057-1.481 1.622-2.307 1.394-1.781-.49-1.775-1.805-1.805-2.478-.02-.396.071-1.284.514-1.365M33.96 29.228c-2.072 3.266-3.455-1.594-2.45-1.921.046.056.717 2.539 2.45 1.92M21.882 54.304c.408-.098.121-1.3.449-1.613.462-.24 1.302-.565 1.558.204.437-.064 1.026-.31 1.18-.504 1.191-1.508-.364-2.62-.591-2.741-.358-.193-1.323-.458-1.476.02.122.225.487.065.747.147.274.087.566.279.685.466.175.276.137.699-.25.753-.214.032-.793-.284-1.353-.272-1.035.02-2.759.758-3.16-.146-.27-.618.65-3.998 1.104-5.382.069-.203.419-.759.08-.821-.011-.002-.025-.002-.037-.003-.052.004-.063.054-.11.065-.243.667-1.817 5.524-1.97 6.336-.131.686-.077 1.228.244 1.561.343.355.722.321 1.18.263.771-.092 1.164.03 1.386.649.12.336.037.802.334 1.018M38.947 55.21c-.293.762-.876.432-1.596.615-.717.184-1.17.415-1.676 1.094-1.016 1.36-1.704 3.278-5.367 3.92-.714.125-1.28.163-1.955.443-4.118 1.697-4.023-1.256-4.157-1.402-.423-.456-.496 1.299-.391 1.557.234.579.353.909 1.331 1.355.894.405 2.504.3 3.187.207 2.51-.338 5.49-.658 6.54-1.224 2.66-1.44 4.355-5.93 4.509-6.54-.14-.007-.282-.018-.425-.025M24.252 58.887c.45-.53 1.735-.855 1.99-1.808.022-.079-.016-.48-.154-.436-.22-.04-.212.211-.408.298-.368.164-.874.036-1.412.056-.769.026-1.606.187-1.623.767.522.443 1.162.452 1.297 1.568.236-.002.234-.267.31-.445M24.209 55.93c.508-.024.963.253 1.41.224.343-.024 1.177-.172 1.3-.957-1.076.052-1.78-.076-2.605-.385-.349-.13-.706-.472-1.078-.373-.418.192-.898.683-1.686.699.103.471.487.992 1.004 1.09.562.104 1.08-.269 1.655-.297"/><path d="M34.925 26.155c-.575-.5-.94-1.793-1.513-2.294-.32.19-3.015 1.599-3.339 1.766-.64.332-5.459 2.672-6.514 3.418-.16.126.12.187.236.227 1.556-.859 5.205-2.126 7.232-3.04.093.011.175.475.318.437.597-.275 1.085-.286 1.757-.478.272.23.302.675.627.856.44-.5.707-.647 1.196-.892M50.839 19.376c.514.126 1.28-1.126 1.3-2.074.028-1.414-1.675-2.735-3.723-1.248.068.053 3.208-.84 2.423 3.322M51.362 32.617c1.064-2.331-.027-5.378-1.46-6.492-.377-.384-1.847-1.36-2.374-.815.084.207 2.093.915 2.321 2.586-1.712-1.791-6.673-2.02-7.82-4.109-.4.303.206 1.408 1.14 2.399-1.953-.203-3.76-2.89-3.559-5.65-.088-.045-.111.058-.272.08-.253.582-.38 3.87.593 4.898-.262.03-.32.175-.788.037-.273 2.099 4.444 2.519 5.463 1.088 1.496 1.531 6.694 1.428 6.756 5.978"/><path d="M15.355 32.895c7.787-4.67 24.085-12.83 24.295-12.91 2.01-4.713 7.51-5.11 8.969-4.878.304.05.762.188.817-.022.001-.38-6.93-2.38-10.306 3.075-.177.285-.24.594-.563.777-2.292 1.29-14.89 8.425-21.366 12.158-4.141 2.388-5.427 4.109-5.383 4.238.34.028.552-.281.775-.453.776-.603 1.786-1.4 2.762-1.985M21.83 42.832c.186-.06.314-.266.467-.412 1.464-1.216 2.463-.102 3.29.576.728.598.786.789 1.719 1.107 1.21.415 2.926-.475 4.307-.125.16.041.328.037.324-.333 0-.114-.021-.172-.323-.321-2.587-.565-4.941-2.92-7.356-3.052-1.096-.06-1.592.5-2.411.859-.527.23-1.126.275-1.692-.238a.97.97 0 0 1-.189-.354c-.307.138-.307.447-.22.817.116.48.882 1.878 2.084 1.476M71.414 52.754c.286.512-.242 2.712-1.498 1.773-1.414-1.278 1.81-4.324-1.28-7.16-1.458-1.738.382-4.04.927-5.53 1.742-4.251-1.145-6.606-3.371-8.29-3.13-1.926-6.074-2.726-9.291-3.028-.098-.02-1.654-.222-2.198-.596-1.176-.983.163-2.53-1.861-3.97 1.791-.07 2.333 1.296 1.854-.086-.78-1.135-2.893-1.281-2.726-3.137.68 1.38 4.022 1.781 3.595 4.094 3.043-4.826-4.606-3.849-2.788-6.956-3.683 1.683-1.778 3.846-1.44 4.514-.699-.31-.9-.886-2.545-.008.64.15 1.718 1.003 2.408 1.988.989 1.36.622 2.946 1.945 4.039.52.432 1.524.742 2.658.714-.586.418-.959 2.126 1.122 3.83 2.966 2.429 2.47 4.263 2.301 5.187.554-.603 1.557-1.553 1.557-2.823 0-1.974-1.664-2.139-1.785-3.566.952.828 1.834.452 3.56 2.207-.147-1.842-1.816-2.618-3.347-3.169 4.054.324 7.041 3.593 7.221 4.582 2.105 3.825-2.84 7.655-1.575 10.307.867 1.818 2.353 1.93 2.293 4.162-.252-1.62-2.226-1.023-3.212-3.608-1.399 3.887 3.212 3.97 3.783 7.673 1.966 3.438 6.637-.26 3.692-3.143M43.647 46.295c.7-1.93-1.417-3.178-1.826-2.83 1.983 1.923.23 3.172.499 5.853-.254.846-1.166.672-1.737 1.109-.534.41-.55 1.21-.684 2.026-.262 1.034-1.688 1.06-2.242-.022-.044.411.058 1.01.274 1.44.297.589 1.13.734 2.004.55.887-.188 1.05-1.488 1.519-2.221.835-1.014 1.508-.855 1.869-1.557.645-1.22.029-3.225.324-4.348"/><path d="M62.13 51.538c-3.117-2.211 1.791-6.07 2.796-9.649.312-1.12.31-3.118-.831-4.017-.064.735.047 2.326-1.632 3.937.967-2.353.89-3.887-.007-5.021-.196-.385-.414-.68-.816-.861 2.213 5.801-7.687 7.993-4.912 11.313-2.08.282-2.448 5.678-7.08 3.659-7.398-4.488 3.462-11.602 1.604-15.02-.761-1.398-1.84-1.616-1.577-2.786-.292.128-1.338.639.206 2.598.732 1.108.554 1.683-.105 2.703-.19-1.364-2.349-.944-1.994-2.897-1.616 1.332.494 2.438 1.38 4.093-2.095-.682-9.102-3.73-10.966-16.322-.288.04-.227 8.676 4.899 14.588-.813-.3-5.79-.595-6.79 1.533.859 2.268 8.587-1.992 9.725 5.304-.767 0-.405-1.098-1.796-2.332-3.724-3.068-7.448 1.963-10.248-3.932-.225-1.172-1.123-1.388-1.259-1.369-.333.489.647 2.82.035 2.53-1.194-.574-4.571-1.804-5.084-1.965-1.024-.32-14.152-4.684-15.485-1.421 0 .616 5.41 2.357 7.766 3.544.394-.855 1.791-.858 2.652-.822 1.163.047 2.14.22 3.08.437 1.42.323 2.798.808 4.125 1.303 1.38.514 2.688 1.143 4.05 1.371.102.044.125.157.275.158.216-.1.43-.125.63-.134.306.607.646 1.172.547 1.98.765-.283 1.106.72 1.415.758.278.034.356-.326.565-.537.239-.247 1.412-1.826 3.275-1.94 1.432-.145 3.865.684 4.192 4.03.083 6.096 6.114 7.161 8.636 5.46 3.144-2.117 1.902-4.028 4.65-4.397-2.778 5.488 3.329 5.467 2.982 7.575-1.08-1.388-4.086-1.66-4.614-3.254-.55 1.9-.563 2.838 2.998 4.687 3.967 2.003 3.42 8.661 9.082 5.03-4.276-1.062.548-5.005-6.369-9.915M40.837 82.12a2.8 2.8 0 0 1 2.802-2.801 2.804 2.804 0 0 1 2.808 2.802 2.804 2.804 0 1 1-5.61 0m4.818-1.554c-.27.013-.668.254-.668.523 0 .187.254.391.446.391.205 0 .609-.34.609-.548a.398.398 0 0 0-.387-.366m-1.95-.94c-.225 0-.422.302-.422.503 0 .26-.2.575.467.537.394-.021.423-.248.423-.443 0-.214-.227-.598-.467-.598m-1.338 1.142c-.107-.048-.172-.096-.294-.096-.437 0-.808.336-.808.773 0 .184.231.246.414.246.406 0 .764-.312.764-.72 0-.098.006-.144-.076-.203m3.307 1.707c-.341 0-.735.142-.735.496 0 .227.21.384.428.384.327 0 .674-.172.674-.51a.368.368 0 0 0-.367-.37m-2.385-.371c.093.24.282.426.648.318.372-.105.352-.373.255-.73a.503.503 0 0 0-.507-.384c-.35 0-.528.476-.396.796m-1.132.348c-.104-.123-.187-.219-.353-.219-.224 0-.364.236-.364.46 0 .432.382.936.813.936a.44.44 0 0 0 .435-.425c0-.286-.376-.516-.531-.752m2.293 1.47c-.164-.194-.281-.397-.563-.397-.25 0-.452.175-.452.397 0 .346.31.652.712.652.29 0 .367-.405.303-.652M38.232 78.318c-.396-.347-1.271-.835-2.237-1.076-2.341-.584-3.714.327-4.06 1.712-.278 1.116.173 2.05 1.49 2.942.918.63 1.302.9 1.201 1.309-.088.35-.508.5-1.165.34a4.45 4.45 0 0 1-1.65-.818l-.874 1.607c.467.36 1.108.71 2.067.95 2.023.507 3.491-.286 3.846-1.703.3-1.196-.417-2.169-1.65-2.983-.83-.534-1.132-.854-1.036-1.236.1-.406.528-.57 1.261-.388.805.201 1.53.651 1.957 1.017l.85-1.673zM28.46 83.804l3.096-7.667-2.051-.83-3.1 7.666 2.056.831zM19.81 75.505l2.778 1.67.887-1.476-.95-.569.737-1.22c.114.016.37.14.63.295 1.166.697 1.558 1.981.765 3.304-.864 1.437-2.2 1.47-3.37.767-.809-.484-1.207-.905-1.507-1.313l-1.292 1.287c.264.4.893 1.008 1.849 1.583 2.298 1.382 4.883 1.23 6.37-1.224.617-1.012.82-2.136.53-3.167-.27-.99-1.015-1.913-2.408-2.745-.922-.56-2.047-.929-2.686-1.072l-2.333 3.88zM16.188 76.788l5.314-6.334-1.695-1.424-5.315 6.338 1.696 1.42zM18.525 67.884l-3.47-4.137-1.421 1.195 2.047 2.437-4.914 4.125 1.423 1.697 6.335-5.317zM14.492 62.948l-2.78-4.628-1.593.958 1.64 2.728-5.496 3.301 1.138 1.9 7.09-4.259zM3.494 60.146l4.289-1.396c2.526-.817 3.338-2.336 2.639-4.488-.72-2.21-2.336-3.02-4.767-2.228L1.318 53.44 2 55.547l4.467-1.45c1.25-.404 1.989-.196 2.261.643.273.836-.268 1.464-1.453 1.85l-4.462 1.448.681 2.108zM8.37 42.934l-.147-2.147-8.223.99.202 2.908 2.247.464c.887.182 2.071.376 3.092.535l.003.04a45.67 45.67 0 0 0-2.977.857l-2.18.7.207 2.972 8.285-.067-.142-2.036-2.963.082-3.339.107v-.025c1.12-.27 2.322-.612 3.199-.882l2.817-.892-.125-1.73-2.928-.616a62.041 62.041 0 0 0-3.296-.645l-.002-.03c1.29-.089 2.388-.187 3.326-.279l2.944-.306zM1.371 32.948L5.66 34.34c2.522.82 4.071.069 4.774-2.08.715-2.208-.115-3.817-2.546-4.607l-4.337-1.41-.685 2.107 4.462 1.45c1.251.405 1.726 1.013 1.455 1.848-.27.834-1.073 1.03-2.265.644L2.056 30.84l-.685 2.108zM13.162 25.723l-1.705-1.105a76.062 76.062 0 0 0-3.152-1.95l.021-.035c1.055.209 2.28.366 3.268.458l3.068.322 1.27-1.96-6.931-4.504-1.107 1.695 1.64 1.064c1.037.673 2.03 1.268 3.01 1.758l-.017.029c-1.014-.22-2.207-.416-3.138-.49l-2.843-.28-1.425 2.191 6.939 4.504 1.102-1.697zM10.841 14.914l6.048 5.639 1.51-1.62-6.047-5.638-1.511 1.62zM22.756 15.085l-3.1-8.129L17.82 8.44l1.374 3.118c.373.846.79 1.737 1.27 2.647l-.022.017a32.069 32.069 0 0 0-2.353-1.818l-2.728-1.975-1.889 1.531 7.247 4.773 2.037-1.648zM28.07 6.252l-2.672 1.3-.586-1.198 2.831-1.38-.793-1.628L22.03 5.7l3.622 7.43 4.98-2.424-.796-1.627-2.985 1.456-.666-1.37 2.67-1.304-.785-1.608zM32 3.327c.101-.055.308-.134.712-.24.71-.186 1.197.05 1.356.648.16.598-.198 1.117-1.005 1.333l-.56.15-.502-1.891zm-.4 6.988l2.122-.567-.805-2.997.345-.094c.661-.175 1.008-.057 1.484.843.493.92.866 1.491 1.052 1.692l2.187-.587c-.24-.268-.811-1.356-1.27-2.105-.389-.64-.815-1.072-1.407-1.155l-.01-.044c.56-.395 1.116-1.302.851-2.297-.211-.784-.637-1.277-1.257-1.531-.72-.294-1.645-.228-2.868.1-1.069.288-1.956.608-2.534.863l2.11 7.88zM39.242 8.14c.478.226 1.455.454 2.448.418 2.413-.085 3.481-1.336 3.43-2.764-.04-1.15-.733-1.925-2.244-2.418-1.053-.35-1.499-.504-1.513-.925-.012-.364.35-.624 1.026-.647a4.384 4.384 0 0 1 1.808.329l.402-1.786c-.551-.22-1.262-.377-2.248-.342-2.088.073-3.284 1.236-3.232 2.698.044 1.228 1 1.966 2.407 2.41.948.285 1.326.51 1.34.903.013.416-.35.694-1.107.72a5.102 5.102 0 0 1-2.161-.437l-.356 1.842zM47.432.296l-1.008 8.208 2.2.268L49.63.564 47.432.296zM51.376 9.267l2.14.571 1.66-6.19 2.073.555.48-1.795L51.482.734l-.484 1.796 2.037.542-1.658 6.195zM59.516 8.31l.965-1.173c.315-.367.723-.925 1.046-1.31l.024.009c-.099.496-.254 1.17-.345 1.643L60.9 8.984l-1.384-.674zm.94 2.279l-.366 1.952 2.15 1.05 1.408-8.515-2.654-1.292-5.777 6.381 2.056 1.003 1.262-1.515 1.92.936zM63.49 14.67l1.766 1.334 3.86-5.118 1.712 1.29 1.121-1.484-5.166-3.891-1.119 1.484 1.683 1.267-3.858 5.119zM73.987 12.773L67.94 18.41l1.51 1.622 6.048-5.64-1.511-1.62zM71.322 21.53c.053.524.359 1.475.902 2.314 1.315 2.022 2.94 2.293 4.135 1.513.968-.626 1.275-1.618.92-3.164-.243-1.088-.339-1.547.011-1.775.306-.2.717-.024 1.084.542.45.695.586 1.34.648 1.721l1.738-.575c-.096-.585-.325-1.278-.864-2.105-1.135-1.752-2.749-2.176-3.975-1.379-1.035.671-1.17 1.874-.827 3.307.24.96.248 1.398-.085 1.612-.348.225-.773.055-1.185-.578a5.05 5.05 0 0 1-.74-2.076l-1.762.642zM77.924 35.4c-.174.5-.298 1.494-.158 2.48.334 2.39 1.692 3.32 3.106 3.123 1.141-.162 1.835-.93 2.171-2.486.24-1.086.346-1.544.763-1.6.358-.052.656.283.749.95a4.328 4.328 0 0 1-.139 1.833l1.819.215c.161-.574.243-1.299.105-2.277-.29-2.065-1.572-3.13-3.02-2.928-1.219.172-1.853 1.2-2.147 2.648-.187.97-.367 1.37-.756 1.426-.413.055-.73-.277-.831-1.027a5.068 5.068 0 0 1 .205-2.195l-1.867-.161zM84.223 29.176l-7.864 2.555.682 2.105 7.865-2.554-.683-2.106zM78.398 42.834l-.376 5.386 1.853.129.223-3.178 6.394.446.153-2.207-8.247-.576zM80.81 52.309l1.337.728c.42.235 1.047.532 1.487.777l-.008.025c-.502-.004-1.196-.028-1.677-.028l-1.537-.012.397-1.49zm-2.055 1.358l-1.991.015-.616 2.312 8.624-.242.764-2.853-7.366-4.454-.595 2.211 1.734.948-.554 2.063zM74.837 58.483l1.79.955a79.01 79.01 0 0 0 3.314 1.666l-.022.038a32.027 32.027 0 0 0-3.292-.173l-3.085-.054-1.094 2.063 7.299 3.883.952-1.786-1.724-.92a32.195 32.195 0 0 0-3.152-1.488l.014-.026c1.029.131 2.233.226 3.168.212l2.857.033 1.227-2.307-7.302-3.882-.95 1.786zM74.753 70.481c-.06.099-.184.277-.42.527-.908.975-2.066 1.21-3.3.057-1.367-1.27-1.218-2.585-.228-3.625.102-.108.24-.257.34-.327l3.608 3.368zM71.475 64.4c-.336.266-.878.744-1.6 1.518-1.103 1.181-1.8 2.388-1.903 3.533-.093 1.018.275 2.232 1.508 3.381 1.11 1.034 2.292 1.333 3.374 1.096.974-.215 1.811-.791 2.893-1.951.667-.717 1.265-1.455 1.662-2.044L71.475 64.4zM70.383 76.976l-4.977-6.605-1.768 1.334 4.976 6.606 1.769-1.335zM61.52 77.188l.329 1.482c.094.477.286 1.142.388 1.635l-.022.01c-.33-.383-.768-.92-1.083-1.286l-.995-1.167 1.383-.674zm-2.376-.662l-1.315-1.492-2.152 1.049 5.846 6.352 2.651-1.295-1.469-8.483-2.059 1.005.42 1.928-1.922.936zM50.497 82.774l2.886-.72.32 1.297-3.055.762.438 1.755 5.203-1.297-1.998-8.025-5.37 1.34.436 1.754 3.222-.802.367 1.476-2.881.723.432 1.737zM61.412 23.258c1.13-.58 4.225-1.525 6.573-.806 1.79.222 2.97 3.771 3.024 4.232.167 1.43.012 2.823-2.648 2.026-.358-.096-1.534-.916-6.016-.676 8.834.782 8.398 4.064 8.629 4.943.178 2.003-.35 4.732-.443 3.972-.816-6.602-10.137-7.804-10.691-7.83-.5-.042-1.005-1.499.087-2.04.41-.21 1.222-.418 1.754-.552.177-.042 2.312-.32 5.535.317.949.19 1.347-1.008.125-1.978-3.387-1.154-7.34.783-7.8.937-.728-.123 3.85-11.66-7.726-10.678.345-1.404 7.424-2.506 9.597 2.819.507 1.245.51 4.639 0 5.314"/><path d="M61.894 62.368c-.28-.123-1.36-.411-2.558-.831 1.808-3.625-3.953-5.81-4.696-6.141-.748-.335-1.63-.76-1.877-1.896-1.02 1.615-1.07 3.451 1.004 4.336 1.706.823 4.004 1.736 5.043 3.51-1.334-.499-2.695-1.147-3.185-1.9-.084.013-.718 3.491 4.255 4.739 2.425.606 2.699 2.289 2.728 2.794.954-.34 1.98-3.447-.714-4.611"/></g></svg>