<svg xmlns="http://www.w3.org/2000/svg" viewBox="0 0 479.4 124.19999"><path d="M0 62.1V0h479.4v124.2H0zm428.64 58.236c6.653-1.972 12.86-4.815 17.833-8.166 4.927-3.321 12.546-10.674 15.821-15.27 5.17-7.253 9.2-16.868 10.532-25.12 1.04-6.446.445-20.528-1.08-25.585-6.573-21.789-22.795-37.76-44.246-43.56-3.423-.925-6.198-1.128-15-1.097-9.963.034-11.209.162-16.073 1.654-13.551 4.154-26.762 13.875-34.236 25.193-2.205 3.339-6.413 11.832-7.266 14.665l-.406 1.35h21.417l2.982-4.576c5.197-7.974 12.88-13.797 22.182-16.81 6.573-2.128 16.522-2.23 22.8-.232 13.357 4.25 23.192 13.743 27.682 26.718 1.452 4.197 1.661 5.705 1.67 12 .01 8.353-.826 11.813-4.64 19.2-2.896 5.61-9.522 12.61-14.982 15.826-19.903 11.725-44.825 4.914-56.287-15.382l-1.443-2.556-10.5.156c-12.11.18-11.339-.45-8.333 6.805 3.606 8.702 11.144 18.298 19.063 24.269 4.473 3.372 13.753 8.304 18.575 9.873 6.316 2.054 11.524 2.687 20.195 2.454 6.88-.185 9.366-.512 13.74-1.809zM84.6 108.9V99H25.2V4.2H5.4v114.6h79.2zm118.2 0V99h-59.4V24.6h59.429l-.165-10.05L202.5 4.5h-79.2l-.153 57.15-.153 57.15H202.8zm95.857-9.451c3.386-10.642 6.154-19.687 6.15-20.099-.005-.586-4.664-.75-21.272-.75-11.695 0-21.38.202-21.523.45-.142.247 1.869 7.065 4.468 15.15 2.6 8.085 5.417 16.927 6.26 19.65l1.533 4.95 9.113-.001 9.114-.001 6.157-19.349zM422.694 83.49c5.073-2.374 9.428-6.75 11.89-11.947 1.739-3.67 1.916-4.575 1.916-9.775 0-5.42-.123-5.98-2.263-10.31-4.997-9.225-13.769-13.351-21.437-13.344-9.701-.543-17.234 6.916-21.8 13.485H270.8c-66.11 0-120.191.202-120.18.45.01.247 2.238 2.064 4.95 4.038 2.711 1.973 8.665 6.36 13.23 9.75L177.1 72h214.085c7.48 11.486 19.495 16.836 31.509 11.49zM265.512 24.45L258.733 4.5l-10.266-.164c-7.995-.128-10.27.005-10.281.6-.008.42 2.76 9.47 6.15 20.111l6.164 19.347 10.895.003 10.896.003-6.779-19.95zm56.74 1.35c3.242-10.065 6.063-19.043 6.269-19.95l.374-1.65h-10.212c-5.617 0-10.361.24-10.543.535-.182.294-3.05 8.958-6.374 19.252-3.324 10.295-6.193 19.105-6.375 19.58-.28.732 1.264.837 10.318.697l10.649-.164z" fill="#fefefe"/><path d="M391.185 72H177.1l-8.3-6.162a2200.438 2200.438 0 0 0-13.23-9.75c-2.712-1.974-4.94-3.79-4.95-4.038-.011-.248 54.07-.45 120.18-.45H391c3.31-5.277 8.376-9.89 13.19-12.143 6.156-2.135 13.283-1.83 18.21.51 5.714 2.733 9.164 6.082 11.837 11.491 3.17 6.959 3.126 14.177.347 20.086-3.924 8.285-11.59 13.544-20.434 14.02-10.43.372-17.904-5.7-22.965-13.564z" fill="#fb7d0c"/><path d="M411.45 20.577c.742-.143 1.957-.143 2.7 0 .742.143.135.26-1.35.26s-2.093-.117-1.35-.26z" fill="#4a4747"/><path d="M6.006 61.828V5.665l4.862-.159c2.673-.087 6.822-.185 9.218-.217l4.356-.057V99.807h59.346v18.183H6.006V61.828zM123.69 61.8V5.61h77.78v18.183h-58.84v76.014h58.84v18.183h-77.78V61.8zM272.083 109.091c-2.764-8.495-6.915-21.513-8.382-26.292-.521-1.698-.612-2.28-.377-2.426.733-.453 38.042-.815 39.73-.386.382.097.695.345.695.55 0 .206-2.513 8.234-5.585 17.84-3.072 9.607-5.719 17.92-5.883 18.476l-.297 1.01-8.501.067-8.502.066-2.898-8.905zM249.12 37.487a5888.285 5888.285 0 0 0-6.018-18.83c-2.224-6.922-3.968-12.661-3.876-12.753.092-.092 4.434-.167 9.65-.167h9.482l6.285 18.662c3.456 10.265 6.217 18.73 6.135 18.812-.313.313-4.565.493-11.981.507l-7.702.014-1.975-6.245zM299.54 43.503c-1.552-.076-2.875-.195-2.94-.265-.2-.211 11.624-37.137 12.019-37.531.114-.114 19.09-.56 19.316-.453.054.025-12.06 38.006-12.165 38.144-.097.126-13.965.216-16.23.105zM403.501 121.015c-10.2-1.808-21.07-6.887-29.047-13.574-2.858-2.396-7.132-6.808-9.13-9.426-3.018-3.952-7.64-12.34-9.16-16.621l-.663-1.872 7.017.167c3.86.092 8.38.17 10.047.176l3.03.009 2.318 3.474c3.794 5.69 7.37 9.376 12.292 12.667 3.806 2.546 9.323 5.009 13.72 6.127 2.026.514 2.811.565 8.668.557 7.13-.009 9.212-.296 13.81-1.907 6.157-2.156 12.557-6.75 18.144-13.026 2.572-2.889 3.817-4.74 5.406-8.036 6.524-13.532 5.516-28.496-2.753-40.861-2.063-3.086-6.24-7.477-9.1-9.567-6-4.383-12.524-7.333-18.017-8.15-3.104-.46-10.342-.518-13.677-.11-7.39.906-15.899 5.355-22.736 11.89-2.562 2.447-4.646 5.133-6.565 8.459l-1.285 2.226-10.03.066-10.03.066.167-.697c.903-3.776 5.382-12.119 9.358-17.43 6.619-8.84 15.728-15.665 26.72-20.02 6.61-2.618 11.536-3.515 19.352-3.523 11.196-.01 16.86 1.006 24.47 4.395 14.948 6.658 25.239 16.754 31.879 31.277 3.29 7.196 4.318 11.823 4.76 21.408.385 8.378.006 12.27-1.819 18.677-3.384 11.882-10.666 22.627-20.936 30.891-8.986 7.23-19.694 11.607-30.679 12.536-4.937.418-12.446.298-15.53-.249z"/></svg>