<svg xmlns="http://www.w3.org/2000/svg" viewBox="0 0 1171.2857 302.20177"><path d="M23.642 216.25c-1.118-6.762-.672-23.29.92-34.122 4.233-28.795 15.066-57.766 30.122-80.555 7.59-11.487 23.39-27.949 33.065-34.449 13.668-9.18 29.717-15.748 48.25-19.744 10.707-2.308 42.174-2.6 54.75-.508l8.25 1.373V58.69c0 9.483-.16 10.396-1.75 9.914-10.3-3.124-27.836-3.908-37.25-1.665-6.855 1.634-18.35 6.83-24.56 11.103-9.605 6.608-22.265 20.8-27.19 30.481-5.318 10.452-8.71 27.185-10.355 51.084-1.023 14.862-.605 46.383.745 56.143l.588 4.25H24.262l-.62-3.75zm120.81-181.896c-3.49-3.766-3.305-8.655.471-12.43C150.993 15.851 160 19.481 160 28c0 5.63-3.37 9-9.002 9-3.142 0-4.664-.615-6.546-2.646zm29.796.396c-3.051-3.27-3.69-6.995-1.82-10.613 3.097-5.987 9.854-7.008 14.649-2.214 3.726 3.727 3.84 7.833.334 12-2.14 2.544-3.322 3.077-6.826 3.077-3.104 0-4.798-.601-6.337-2.25z" fill="#fbc458"/><path d="M436.94 300.456c-.482-1.282-4.712-10.97-8.42-20.763-3.707-9.793-6.262-18.82-6.262-18.82l3.036-.022 12.996 34.8 6.646-18.17-6.964-16.415 3.184-.066 5.407 12.186 4.032-12.232h2.856l-2.506 8.195-3.059 8.297 3.215 8.315c1.768 4.574 3.505 8.496 3.86 8.715l11.647-33.655h3.297S456.126 301.5 455.042 301.5c-.673 0-2.822-4.174-4.775-9.275-1.953-5.1-3.814-9.011-4.136-8.69-.321.322-1.985 4.471-3.696 9.221-3.287 9.123-4.06 11.52-5.495 7.7zm162.06-.05c-11.183-4.844-15.277-19.432-8.633-30.769 3.328-5.678 8.832-8.636 16.069-8.636 6.593 0 10.088 1.555 14.316 6.37 6.736 7.672 5.995 23.125-1.432 29.841-5.067 4.582-13.908 5.972-20.32 3.194zm14-3.546c8.353-5.09 11.184-15.112 6.75-23.89-3.276-6.485-7.89-9.257-14.522-8.724-8.489.68-14.254 7.57-14.206 16.972.067 13.114 12.087 21.67 21.978 15.642zm32.893 3.644c-5.647-3.07-6.363-5.554-6.73-23.344-.32-15.417-.242-16.122-.242-16.122l3.696-.021s.038 5.555.383 16.835c.335 11.085-.978 21.074 11 21.149 13.637-1.324 11.227-10.092 11.58-21.64l-.356-16.493 3.542.036.071 16.256c.08 17.927-1.096 20.372-6.936 23.392-3.548 1.834-12.594 1.807-16.008-.048zm361.137-.087c-4.525-1.963-6.842-4.125-9.017-8.417-5.62-11.089-1.71-24.556 8.671-29.88 3.096-1.588 12.895-1.389 16.217.329 4.073 2.106 8.83 7.923 10.039 12.274 4.776 17.199-10.521 32.368-25.91 25.694zm15.793-4.29c6.772-4.823 9.12-16.139 4.895-23.597-6.567-11.595-20.43-11.345-26.54.478-4.33 8.381-1.17 19.767 6.67 24.03 4.544 2.471 10.755 2.093 14.975-.912zm29.677-29.579l-.357 34.184-4.033-.104.211-39.753 4.439-.003 23.24 35.396-.074-35.546 3.431-.156-.052 39.992-4.275.03zm45.75 33.804c-1.788-.88-3.945-2.724-3.945-2.724l1.707-2.726s2.063 1.725 4.661 2.717c6.405 1.604 13.316.732 13.327-6.464 0-3.267-3.472-6.817-9.884-10.105-1.989-1.02-4.614-3.013-5.93-4.335-5.217-5.24-3.079-12.685 2.114-15.05 7.531-2.085 12.985-1.309 17.484.703l-1.124 3.453c-4.292-.706-11.952-2.676-15.237.252-4.364 4.1-2.45 8.2 6.067 13.008 8.9 3.395 12.538 10.374 9.372 17.324-2.33 5.114-12.059 7.178-18.612 3.947zm-816.436-39.436c.99-.082 1.963.114 3.312.022L285 298l17.973.134-.027 2.687-21.17.09zm33.427.363l3.507-.046.118 39.738-3.86-.02zM337 261l21.036.134-.06 2.866h-17.658l.182 15.5 14.437-.019-.07 3.519h-14.555l.045 17.884-3.286-.018zm35 20v-20h21.036l-.018 3-17.572.045.045 14.955h14.375l.027 3.43-14.393.07-.138 15.5h17.658l-.074 3H372zm111-20h3l.263 39.909h-3.236zm29 21.5V264h-13.531l.035-2.66 29.496-.402-.071 3.062H515v36.982h-3zm29-1.5l.071-20 2.929.027V279h25l-.03-18.16 2.914.07S572 283.89 572 301l-3-.08V282h-25v18.965l-3.063.036zm152.252 19.935L693 264l-13.003-.126s-.023-.762-.06-2.763l30.063.063c0 1.937-.06 2.826-.06 2.826H697l.442 36.998-4.19-.065zm47.977-19.672c.245-17.877.253-20.326.253-20.326l3.61.036-.092 18.415v18.534l17.784-.034.004 3.098c-7.277.016-14.554.015-21.83.015zm33.819-20.39l2.995.005.041 40.025-3.1.097zM796 261l5.699.063 13.203 35.14 14.217-35.258 5.381-.013.478 39.69-4.149.015.067-35.137-14.17 35.207-3.978.04c-4.773-11.603-13.248-35.248-13.248-35.248l-.417 35.354-3.247.02zm57.111-.126l2.819-.01.099 39.807-3.044.14zm28.389 3.247l-13.567-.11v-2.946l30.152-.065-.026 3.015-13.063-.015.164 37c-.289 0-3.784-.184-3.784-.184zm18.676 36.129c4.745-13.14 14.232-40.227 14.232-40.227l4.023-.007s9.85 26.99 14.612 40.307l-4.092-.018-3.268-11.306h-17.516l-3.543 11.382zm24.044-14.473l-7.44-20.698-7.648 20.653zm24.067-21.277l-13.474-.155-.063-3.28 30.296-.102.083 3.557-13.127-.078-.141 36.116-3.871.063zm29.014-3.403l3.656-.16.123 39.791-4.163.02zM0 110V0h199v24c0 13.2-.37 24-.824 24-.453 0-5.516-.718-11.25-1.595-14.14-2.162-40.633-1.399-53.426 1.54-17.632 4.051-32.524 10.294-45.75 19.18-9.676 6.5-25.477 22.961-33.066 34.448-20.29 30.711-32.663 72.264-31.467 105.677l.456 12.75H0zm157.545-75.455C163.148 28.943 159.261 19 151.468 19c-4.933 0-9.468 4.444-9.468 9.277 0 7.855 9.948 11.866 15.545 6.268zm29.866-.622c3.507-4.167 3.392-8.273-.334-12-4.795-4.794-11.552-3.773-14.648 2.214C169.235 30.314 173.474 37 180.585 37c3.504 0 4.685-.533 6.826-3.077zM98.64 215.75c-1.35-9.76-1.768-41.281-.745-56.143 2.06-29.924 6.44-47.059 14.984-58.607 12.322-16.657 25.776-27.162 41.558-32.45 11.248-3.767 27.812-3.984 40.637-.53L199 69.077V220H99.227zm222.649 3.222c-37.22-4.7-60.31-22.36-71.58-54.75-2.643-7.594-3.095-10.474-3.494-22.272-.39-11.542-.141-14.802 1.676-22 5.45-21.586 18.82-40.098 35.834-49.612C302.71 59.719 330.329 55.56 356 59.452c21.514 3.262 35.38 9.757 48 22.485 23.024 23.219 29.747 56.111 17.794 87.063-10.123 26.213-30.932 42.767-60.93 48.47-10.36 1.97-29.975 2.714-39.576 1.502zm29.212-28.476c10.201-2.142 20.43-7.511 25.9-13.597 8.744-9.724 13.61-23.288 13.585-37.86-.056-32.552-20.512-53.017-52.985-53.007-22.923.007-39.887 9.332-47.896 26.327-3.553 7.54-6.11 18.605-6.087 26.338.043 14.108 6.28 30.696 14.715 39.13 11.691 11.691 33.026 16.813 52.768 12.669zm151 28.437c-9.385-1.28-21.262-4.405-27.719-7.293-16.232-7.263-28.867-22.815-31.399-38.65l-.638-3.99h38l.627 3.921c.9 5.624 6.207 12.046 12.672 15.332 10.795 5.488 28.887 7.257 44.215 4.325C553.498 189.47 560 184.016 560 173.5c0-13.967-10.954-19.044-54-25.028-24.327-3.381-40.509-8.848-49.532-16.732-8.36-7.304-12.45-19.44-10.586-31.41 3.58-23 22.227-37.397 53.516-41.32 23.887-2.996 51.085.652 67.81 9.095 7.081 3.575 15.684 11.329 19.173 17.281 3.145 5.367 5.834 14.69 5.434 18.843l-.315 3.271-18.119.272-18.118.272-.616-3.851c-1.724-10.778-12.495-17.938-30.617-20.35-16.676-2.221-33.856 1.89-39.187 9.377-2.694 3.783-3.634 12.457-1.823 16.828 2.474 5.972 8.1 7.661 46.48 13.949 28.772 4.713 37.204 6.778 47.132 11.542 20.425 9.801 26.759 30.842 16.093 53.461-7.535 15.979-23.51 25.22-49.947 28.898-11.188 1.556-33.374 2.112-41.278 1.035zm169 .008c-9.715-1.309-23.334-5.324-30.742-9.064-7.926-4-18.65-14.322-22.62-21.77-2.578-4.837-6.138-15.46-6.138-18.317 0-.435 8.457-.79 18.793-.79h18.792l1.269 4.75c1.95 7.3 9.538 14.148 19.17 17.302 6.545 2.143 9.281 2.447 21.976 2.44 12.23-.006 15.624-.36 21.683-2.258 8.504-2.665 12.918-6.077 15.546-12.018 2.51-5.674 1.652-11.143-2.486-15.856-5.99-6.822-13.027-9.044-43.961-13.883-12.255-1.917-25.882-4.381-30.282-5.476-16.296-4.056-28.521-12.313-33.651-22.731-2.025-4.112-2.343-6.22-2.308-15.27.054-13.627 2.262-19.578 10.553-28.442 9.351-9.996 20.754-15.166 39.906-18.094 25.488-3.896 56.194.234 73 9.82 12.37 7.056 21.027 19.939 21.833 32.489l.403 6.273-18.337-.273-18.337-.273-.866-4.383c-1.192-6.032-8.276-13.068-16.108-15.998-17.357-6.494-42.428-4.513-51.264 4.052-6.449 6.25-7.149 16.916-1.445 22.012 4.247 3.795 9.303 5.055 43.12 10.743 16.226 2.729 32.65 5.938 36.5 7.132 15.595 4.837 24.504 11.452 29.353 21.794 2.337 4.985 2.648 6.88 2.648 16.148 0 10.05-.16 10.833-3.708 18.266-8.347 17.48-22.076 26.082-48.25 30.23-11.805 1.872-35.182 2.638-44.042 1.445zm176.427-.011c-16.016-1.7-25.048-4.868-36.927-12.949-7.71-5.244-16.643-14.958-19.496-21.2-4.163-9.107-4.569-15.906-4.278-71.781l.274-52.5h39l.5 57.5c.555 63.8.185 60.443 7.358 66.74 5.914 5.193 12.303 6.755 27.642 6.757 10.444.002 14.672-.406 18.678-1.804 7.618-2.658 13.146-7.075 15.659-12.513 2.124-4.596 2.168-5.692 2.46-60.93l.296-56.25h17.872c9.83 0 18.583.273 19.453.607 1.415.543 1.579 6.106 1.551 52.75-.032 54.652-.478 62.56-4.073 72.226-3.1 8.338-14.436 19.5-25.019 24.637-16.503 8.01-38.257 11.119-60.95 8.71zm297.313-4.04c-5.062-2.506-7.733-5.964-9.39-12.16-3.734-13.963 9.559-27.507 24.963-21.808 9.233 3.416 11.473 9.617 11.473 17.578 0 14.112-14.228 22.734-27.046 16.39zm16.862-3.16c4.85-3.24 7.093-8.084 6.634-14.322-1.452-19.738-30.208-18.846-30.223.936-.01 6.67 4.354 13.073 9.487 14.95 3.86 1.41 10.8.641 14.102-1.564zM1146 199v-11c8.827-1.918 16.032-.975 16 6 0 2.11-3.272 6-5.048 6l5.526 9.586-4.257-.004-5.547-9.332-3.597-.045-.146 9.798s-2.594.042-2.949.042c0 0 .018-1.934.018-11.045zm11.82-4.667c.34-2.606-2.579-3.7-6.48-3.547h-2.151l.01 6.114s8.645.362 8.626-2.567zM966 137.427V59.854l56.75.412c61.58.446 63.076.572 74.305 6.262 14.2 7.196 21.879 22.016 20.725 40-.85 13.242-6.955 22.599-19.559 29.977l-7.44 4.355 5.994 3.026c7.245 3.658 12.617 9.64 14.161 15.774.63 2.5 1.396 12.035 1.704 21.192.658 19.583 1.381 23.147 5.379 26.51 1.881 1.583 2.981 3.455 2.981 5.073V215h-42.754l-2.341-5.25c-2.17-4.866-2.358-6.707-2.563-25.18-.25-22.591-.377-23.006-8.43-27.57-4.37-2.476-4.673-2.503-32.162-2.808l-27.75-.308V215h-39zm100.728-11.958c9.386-3.922 14.287-10.69 14.25-19.68-.033-8.018-2.733-13-8.615-15.895-4.769-2.347-5.47-2.4-36.113-2.697l-31.25-.302V127h29.032c23.805 0 29.692-.276 32.696-1.53zM294.5 39.653c-12.391-5.681-16.128-22.173-7.303-32.225 10.536-12 29.092-8.952 35.25 5.79 2.234 5.349 1.919 10.656-.98 16.473-3.674 7.371-8.863 10.677-17.345 11.048-4.091.179-7.769-.236-9.622-1.086zm66 0c-12.391-5.681-16.128-22.173-7.303-32.225 13.048-14.86 36.761-5.757 36.797 14.126.01 4.867-4.553 12.868-9.155 16.057-3.313 2.296-5.359 2.893-10.717 3.128-4.091.179-7.769-.236-9.622-1.086z" fill="#0383c6"/></svg>