<svg xmlns="http://www.w3.org/2000/svg" class="Snail" viewBox="0 0 53.866323 42.89419"><path d="M11.565 41.142c-1.971-.92-4.714-3.26-6.094-5.201-2.055-2.889-2.51-4.556-2.51-9.19 0-3.709-.406-5.795-1.178-6.053-.647-.216-.939-.779-.647-1.25.291-.472.058-.858-.519-.858-.576 0-.787-.422-.468-.937.318-.516 1.557-.938 2.753-.938 1.195 0 2.698-.633 3.34-1.406.972-1.17.852-1.406-.713-1.406-3.147 0-4.276-8.27-1.507-11.04 1.415-1.414 1.47-1.356.72.77-.907 2.575-1 8.082-.15 8.931.304.304 1.423.087 2.486-.482 2.91-1.557 6.129 1.92 5.356 5.786-.312 1.557-.567 3.226-.567 3.707 0 .482-.392.633-.872.336-.48-.296-1.178-.045-1.551.559-.402.649-.274.847.312.485.545-.337 1.936.97 3.09 2.902 1.173 1.96 2.284 2.996 2.515 2.343.724-2.055 4.717-1.287 6.75 1.298 1.07 1.358 1.944 2.048 1.944 1.533 0-.516-.88-2.057-1.957-3.426l-1.957-2.488 1.923-1.623c1.058-.892 2.677-3.688 3.598-6.212 2.07-5.673 5.327-8.208 11.214-8.728 6.468-.57 12.234 2.537 15.14 8.161 1.836 3.552 2.1 5.15 1.673 10.113-.297 3.448-1.105 6.492-1.946 7.333-.79.79-1.438 1.83-1.438 2.309 0 .478-.738.883-1.64.9-1.039.018-.33.834 1.927 2.223 2.796 1.718 3.237 2.32 2.033 2.783-.845.324-9.623.555-19.506.513-15.17-.064-18.529-.336-21.554-1.747zm12.49-.569c-2.32-.731-5.407-1.336-6.859-1.344-3.036-.016-5.785-1.277-8.971-4.115-2.23-1.986-2.234-1.987-1.224-.04 2.201 4.238 8.298 6.82 16.116 6.825l5.157.003-4.22-1.33zm27.187-10.13c0-1.192-.433-.66-1.8 2.21-1.052 2.21-1.032 2.24.342.524.802-1.001 1.458-2.232 1.458-2.735zM48.43 27.63c0-1.191-.433-.66-1.8 2.21-1.052 2.21-1.033 2.24.342.524.802-1 1.458-2.231 1.458-2.734zm-22.752-2.552c.08-1.073.683-2.596 1.338-3.385 1.47-1.771 2.109-5.915.913-5.915-.483 0-1.32 1.265-1.859 2.812-.539 1.547-.697 2.813-.352 2.813.346 0-.37.7-1.59 1.554-2.119 1.484-2.141 1.611-.498 2.812.946.692 1.761 1.259 1.81 1.259.05 0 .157-.878.238-1.95zm13.915-6.386c-.477-.203-1.637.582-2.578 1.744-2.61 3.224-2.036 3.978.868 1.141 1.418-1.385 2.188-2.683 1.71-2.885zm-31.648.363c-.588-1.291-1.246-2.171-1.462-1.955-.438.438 1.463 4.303 2.116 4.303.229 0-.066-1.057-.654-2.348zm21.735-5.13c0-.503 1.582-1.782 3.516-2.842 2.415-1.325 2.782-1.741 1.171-1.331-4.466 1.136-8.835 5.088-5.625 5.088a.93.93 0 0 0 .938-.915zM8.843 4.293C9.357 2.326 11.867-.999 11.867.29c0 .82-4.963 15.679-5.395 15.679-.197 0 2.069-10.515 2.371-11.675z"/><path d="M13.037 18.423c-3.248-1.782-2.657-6.085-4.458-6.953 3.863-1.968 6.354 1.386 4.458 6.953z" fill="#275a26" fill-rule="evenodd" stroke="#014b00" stroke-width=".416"/><path d="M15.41 5.893c4.826 3.186 11.736 10.21 11.736 10.21 5.93 3.835 8.651 6.374 10.207 8.132 1.61.731 2.319 1.822 3.125 2.875 2.779-1.213 2.141-2.852 2.438-4.375-1.253-.223-2.054-1.798-3-2.938-2.111-1.468-5.117-4.54-8.822-8.26 0 0-7.22-6.315-10.468-10.176-2.073.029-4.936 1.446-5.216 4.532z" fill="#0e470d" fill-rule="evenodd" stroke="#1d3f16"/></svg>